<svg id="logo" xmlns="http://www.w3.org/2000/svg" xmlns:xlink="http://www.w3.org/1999/xlink" viewBox="0 0 158.24 42.26"><defs><style>.cls-1{fill:url(#linear-gradient);}.cls-2{fill:#f7931e;}.cls-3{fill:url(#linear-gradient-2);}.cls-4{fill:url(#linear-gradient-3);}.cls-5{fill:url(#linear-gradient-4);}.cls-6{font-size:34.87px;fill:#4a396e;font-family:Arial Rounded MT Bold;}</style><linearGradient id="linear-gradient" x1="35" y1="52.38" x2="71.57" y2="52.38" gradientUnits="userSpaceOnUse"><stop offset="0" stop-color="#ff4c74"/><stop offset="0.03" stop-color="#ff4c74"/><stop offset="1" stop-color="#4a396e"/></linearGradient><linearGradient id="linear-gradient-2" x1="13.2" y1="68.13" x2="59.04" y2="60.49" gradientUnits="userSpaceOnUse"><stop offset="0" stop-color="#ff4c74"/><stop offset="1" stop-color="#4a396e"/></linearGradient><linearGradient id="linear-gradient-3" x1="24.14" y1="54.34" x2="56.86" y2="54.34" xlink:href="#linear-gradient-2"/><linearGradient id="linear-gradient-4" x1="35.26" y1="62.86" x2="50.6" y2="62.86" xlink:href="#linear-gradient-2"/></defs><title>SorsLogo</title><path class="cls-1" d="M71.57,38.77a24.56,24.56,0,0,1-.94,5.86,35.29,35.29,0,0,1-8.07,15.13l-0.72.78-0.74.75q-1.25,1.23-2.59,2.32a36.29,36.29,0,0,1-23,7.85C35.4,70.88,35,70.3,35,69.72h0V68.31c0-.2.33-0.4,0.34-0.6a35.57,35.57,0,0,1,2.24-11.43c0.19-.53.47-1,0.68-1.57s0.48-1,.72-1.54a36,36,0,0,1,2.07-3.74c0.61-1,1.29-1.92,2-2.84,0.54-.69,1.11-1.37,1.7-2a35.2,35.2,0,0,1,8.35-6.81l0.36-.21c0.38-.22.75-0.42,1.14-0.62,0.75-.4,1.51-0.76,2.28-1.1l0.16-.07,0.6-.25,0.07,0c0.56-.23,1.13-0.44,1.7-0.64h0c0.5-.18,1-0.34,1.51-0.49,1.31-.39,4.24-1.38,6.08-0.91a5.94,5.94,0,0,1,3.7,2.45A4.48,4.48,0,0,1,71.57,38.77Z" transform="translate(-24.06 -33.3)"/><polyline class="cls-2" points="47.37 7.45 58.78 11.56 46.88 10.03"/><path class="cls-3" d="M58.49,63.61a36.29,36.29,0,0,1-23,7.85C35.4,70.88,35,70.3,35,69.72h0.32a31.22,31.22,0,0,1-3.26,1.36,36,36,0,0,1-8,2.09A18.44,18.44,0,0,1,37.74,57h0s0.09-.38.13-0.4A19.08,19.08,0,0,1,43,55.72a18.74,18.74,0,0,1,7.6,1.5s0,0,0,0A18.86,18.86,0,0,1,58.49,63.61Z" transform="translate(-24.06 -33.3)"/><path class="cls-4" d="M56.82,35.84s0,0.56,0,.85a36.09,36.09,0,0,1-6.28,20.44s0,0.15,0,.16A38.63,38.63,0,0,1,35.69,70h0a1.11,1.11,0,0,0,0-.13,33.76,33.76,0,0,1-3.43,1.29,36.18,36.18,0,0,1-8.09,1.69A18.88,18.88,0,0,1,37.68,56.32c0.19-.53.45-1.08,0.67-1.59s0.44-1,.68-1.55a35,35,0,0,1,2.05-3.74q0.92-1.46,2-2.84c0.54-.69,1.1-1.37,1.7-2a35.19,35.19,0,0,1,8.35-6.81l0.36-.21c0.38-.22.63-0.42,1-0.62A14.62,14.62,0,0,1,56.82,35.84Z" transform="translate(-24.06 -33.3)"/><path class="cls-5" d="M50.6,57.29A38.63,38.63,0,0,1,35.69,70h0a1.3,1.3,0,0,0,0-.13l-0.2.1-0.19.09c0-.07,0-0.14,0-0.21s0-.39,0-0.59c0-4.36,2.38-12.93,2.42-12.94A20.41,20.41,0,0,1,43,55.66a18.84,18.84,0,0,1,7.59,1.51A0.65,0.65,0,0,1,50.6,57.29Z" transform="translate(-24.06 -33.3)"/><text class="cls-6" transform="translate(61.67 34.89)">So<tspan x="44.31" y="0">r</tspan><tspan x="58.72" y="0">s</tspan></text></svg>