<svg id="assets" xmlns="http://www.w3.org/2000/svg" xmlns:xlink="http://www.w3.org/1999/xlink" viewBox="0 0 228.59 173.42"><defs><style>.cls-1{fill:#7fe200;}.cls-2{fill:#4a396e;}.cls-3{fill:#1b1464;}.cls-12,.cls-13,.cls-4,.cls-8{fill:none;stroke:#4a396e;stroke-miterlimit:10;}.cls-12,.cls-4{stroke-linecap:round;}.cls-4{stroke-width:2.01px;}.cls-5{fill:url(#linear-gradient);}.cls-6{fill:url(#linear-gradient-2);}.cls-7{fill:url(#linear-gradient-3);}.cls-9{fill:url(#linear-gradient-4);}.cls-10{fill:url(#linear-gradient-5);}.cls-11{fill:url(#linear-gradient-6);}.cls-12{stroke-width:2.09px;}.cls-13{stroke-width:1.04px;}</style><linearGradient id="linear-gradient" x1="2319.18" y1="1332.49" x2="2528.87" y2="1345.1" gradientUnits="userSpaceOnUse"><stop offset="0" stop-color="#7fe200"/><stop offset="0.36" stop-color="#54d443"/><stop offset="1" stop-color="#00b8c5"/></linearGradient><linearGradient id="linear-gradient-2" x1="2339.08" y1="1313.82" x2="2542.79" y2="1301.15" xlink:href="#linear-gradient"/><linearGradient id="linear-gradient-3" x1="2415.51" y1="1322.45" x2="2474.8" y2="1240.2" xlink:href="#linear-gradient"/><linearGradient id="linear-gradient-4" x1="2547.15" y1="1300.06" x2="2498.74" y2="1448.28" xlink:href="#linear-gradient"/><linearGradient id="linear-gradient-5" x1="2545.14" y1="1386.58" x2="2555.45" y2="1291.39" xlink:href="#linear-gradient"/><linearGradient id="linear-gradient-6" x1="2555.69" y1="1436.92" x2="2541.49" y2="1291.29" xlink:href="#linear-gradient"/></defs><title>green</title><circle class="cls-1" cx="32.49" cy="159.77" r="11.6"/><circle class="cls-2" cx="32.49" cy="159.77" r="8.31"/><circle class="cls-3" cx="32.49" cy="159.77" r="5.76"/><path class="cls-4" d="M2349.94,1396.69a14.05,14.05,0,0,1,12.87-10.66c7-.18,13.39,5.53,14,13.26" transform="translate(-2330.9 -1240.7)"/><line class="cls-4" x1="33.29" y1="145.32" x2="33.8" y2="135.89"/><circle class="cls-1" cx="109.13" cy="154.7" r="7.81"/><circle class="cls-3" cx="109.13" cy="154.7" r="5.59"/><circle class="cls-3" cx="109.13" cy="154.7" r="3.87"/><path class="cls-4" d="M2431,1392.85a9.46,9.46,0,0,1,8.66-7.17,9.56,9.56,0,0,1,9.45,8.92" transform="translate(-2330.9 -1240.7)"/><line class="cls-4" x1="182.73" y1="147.38" x2="182.68" y2="137.93"/><circle class="cls-1" cx="182.61" cy="161.82" r="11.6"/><circle class="cls-2" cx="182.61" cy="161.82" r="8.31"/><circle class="cls-3" cx="182.61" cy="161.9" r="5.76"/><path class="cls-4" d="M2500.48,1398.73a14.05,14.05,0,0,1,12.87-10.66c7-.18,13.39,5.53,14,13.26" transform="translate(-2330.9 -1240.7)"/><path class="cls-5" d="M2346.77,1317.81c-10.27,7.72-13.32,15.87-14,17.92-5.09,14.69,1.69,29.27,4.55,34.67,23.23,7.94,58.62,15.24,102.34,15.28,37.61,0,77.43-8.08,102.7-15.58,9.23-19.4,10-35.36.84-44.1,0,0-3-2.84-11-10.91C2502.79,1285.16,2385.8,1288.47,2346.77,1317.81Z" transform="translate(-2330.9 -1240.7)"/><path class="cls-6" d="M2368.06,1281.32c-4.17,1-11.93,3-18.16,9.75-10.1,11-9.46,27.25-8.72,34.51a334.83,334.83,0,0,0,100.32,15.24,344.56,344.56,0,0,0,100.25-15.24c1.61-8.34.26-17.65-7.57-29.25-4.16-6.16-11.73-12.48-14.68-12.85C2472.28,1277.5,2419.6,1269,2368.06,1281.32Z" transform="translate(-2330.9 -1240.7)"/><path class="cls-7" d="M2431.31,1242.6c-13.26,1.52-30,4.62-49.21,20.06a87.62,87.62,0,0,0-19.31,21.78,336.9,336.9,0,0,0,76,11.09c35.07,1.07,62.29-5.69,84.26-10.81a83.83,83.83,0,0,0-50.15-39.74C2455.31,1239.89,2441.81,1241.32,2431.31,1242.6Z" transform="translate(-2330.9 -1240.7)"/><path class="cls-8" d="M2440.51,1241.5l0.37,0.14,0.2,0.07c3.9,1.4,8.33,3.17,13.09,5.4,0,0-.29,0-0.26,0A141.7,141.7,0,0,1,2499.5,1281h0a20.76,20.76,0,0,1,4.2,4.48c0.83,1,1.81,2,2.6,3a129.24,129.24,0,0,1,21.39,41.06,147.4,147.4,0,0,1,6.47,42.82" transform="translate(-2330.9 -1240.7)"/><path class="cls-9" d="M2558.46,1365.46c-6.1,4.36-13.39,8.47-19.51,13.28l-1.43-.13c-11.88-1.38-21.16-2.1-33-3.1-1.22-5.17-3.85-11.51-4-20.81-0.18-10.91,1-18.29,5-23.46,6-7.67,16.89-8.06,20.33-8,4.53-.49,16.28-1.35,23.53,3.63a13.65,13.65,0,0,1,3.59,3.53c1.14,1.64,2,3.75,3.37,13.5C2557.56,1352.71,2558.15,1360.18,2558.46,1365.46Z" transform="translate(-2330.9 -1240.7)"/><path class="cls-10" d="M2558.46,1365.36c-6.1,4.36-13.39,9-19.51,13.39-0.68-5.59-.59-11.5-0.87-15.12,0,0-.79-17,2.21-28.06A17.06,17.06,0,0,1,2543,1330c1.09-1.47,2.28-3.08,4.06-3.43a3.87,3.87,0,0,1,2.26.26,13.66,13.66,0,0,1,3.59,3.53c1.14,1.64,2,3.7,3.37,13.45C2557.56,1352.65,2558.15,1360.07,2558.46,1365.36Z" transform="translate(-2330.9 -1240.7)"/><path class="cls-11" d="M2542.9,1372.22c-0.28-2.65-.52-5.31-0.74-8,0-.18-1.36-17.41,1.44-27.7a13.71,13.71,0,0,1,2.19-4.39c0.52-.71,1.19-2.08,2-2.08h0c1,0,1.7,1.45,2.31,2.33,0.73,1.05,1.48,2.74,2.79,12,0.92,6.46,1.59,13,2,19.38Z" transform="translate(-2330.9 -1240.7)"/><line class="cls-12" x1="209.23" y1="137.7" x2="210.39" y2="165.52"/><line class="cls-4" x1="209.63" y1="143.37" x2="226.07" y2="132.13"/><line class="cls-12" x1="209.39" y1="151.01" x2="226.78" y2="139.56"/><line class="cls-12" x1="210.05" y1="157.28" x2="227.09" y2="146.5"/><path class="cls-8" d="M2440.8,1241.74c-13.17,6.88-44,21.52-60.78,46.68-3.61,5.44-5.53,11.33-10.53,17.85h0a2.88,2.88,0,0,1,0,1.26c-12.47,28.37-11.2,54.57-9.38,69.14" transform="translate(-2330.9 -1240.7)"/><path class="cls-13" d="M2395.32,1383.06a188.4,188.4,0,0,1,6.06-67.78,184.58,184.58,0,0,1,6-18.13q0.76-2,1.56-3.86a189.38,189.38,0,0,1,8.74-18.15c8-14.55,22.62-33.45,22.78-33.64" transform="translate(-2330.9 -1240.7)"/><path class="cls-13" d="M2440.51,1241.5a1.34,1.34,0,0,1,0,.16c0,0.21.06,0.41,0.07,0.61q1.84,16.05,3.21,33.2,0.72,9.21,1.29,18.71l0.08,1.45q0.64,11.1,1,22.6t0.48,22.52q0.23,23.27-.63,44.85" transform="translate(-2330.9 -1240.7)"/><path class="cls-13" d="M2441.71,1241c1.52,1.79,27.08,24.47,33.41,37,2.42,4.78,4.72,9.87,6.86,15.28,0.44,1.1.87,2.22,1.29,3.35q2.46,6.56,4.52,13.71a186,186,0,0,1,5.68,26.71c2.28,17,1.63,32.12.73,44.15v-0.1" transform="translate(-2330.9 -1240.7)"/><line class="cls-12" x1="226.19" y1="124.76" x2="227.55" y2="156.15"/></svg>