<svg id="home_page_illustrations" data-name="home page illustrations" xmlns="http://www.w3.org/2000/svg" xmlns:xlink="http://www.w3.org/1999/xlink" viewBox="0 0 166.98 88.55"><defs><style>.cls-1{fill:url(#linear-gradient);}.cls-2{fill:#4a396e;}.cls-3{fill:#c1bdd1;}.cls-4{fill:none;stroke:#4a396e;stroke-linecap:round;stroke-miterlimit:10;stroke-width:1.69px;}</style><linearGradient id="linear-gradient" x1="1299.91" y1="695.17" x2="1450.59" y2="695.17" gradientTransform="translate(258.79 -283.79) rotate(25.28)" gradientUnits="userSpaceOnUse"><stop offset="0" stop-color="#93278f"/><stop offset="1" stop-color="#f7931e"/></linearGradient></defs><title>safe</title><path class="cls-1" d="M1277.55,951.08c9.17-12,10.61-27.57,3.87-39.3-4.31-7.5-13.6-16.3-24.12-15.8-20.24,1-21.4,35.17-43.36,40.49-22.53,5.45-36.2-27-63.49-22.64-19.28,3.07-34.52,22.76-31.4,30.71,3.76,9.57,32.76-1.28,48.2,16.15,7.7,8.69,4.58,16,11.18,21.44,12.36,10.16,28.64-15.55,61.18-14.44,13.8,0.47,23.82,5.25,31.46-1.3C1275.82,962.29,1277.17,955.93,1277.55,951.08Z" transform="translate(-1118.64 -895.95)"/><path class="cls-2" d="M1209.1,899.25A66,66,0,0,0,1143.35,965h16.47a49.28,49.28,0,0,1,98.56,0h16.48A66,66,0,0,0,1209.1,899.25Z" transform="translate(-1118.64 -895.95)"/><path class="cls-3" d="M1209.1,904c-33.68,0-61,28-61,61h11.69a49.28,49.28,0,0,1,98.56,0h11.7C1270.07,932,1242.77,904,1209.1,904Z" transform="translate(-1118.64 -895.95)"/><path class="cls-2" d="M1209.1,909.84c-30.47,0-55.16,25.16-55.16,55.16h5.88a49.28,49.28,0,0,1,98.56,0h5.89C1264.26,935,1239.56,909.84,1209.1,909.84Z" transform="translate(-1118.64 -895.95)"/><path class="cls-3" d="M1258.68,965h-99.15A49.57,49.57,0,1,1,1258.68,965Z" transform="translate(-1118.64 -895.95)"/><rect class="cls-2" x="77.22" y="47.24" width="27.36" height="7.4" rx="3.7" ry="3.7"/><rect class="cls-2" x="89.61" y="55.5" width="2.58" height="15.21" rx="1.26" ry="1.26"/><rect class="cls-2" x="113.77" y="41.71" width="3.63" height="17.46" rx="1.82" ry="1.82"/><rect class="cls-2" x="102.19" y="55.86" width="15.09" height="3.54" rx="1.77" ry="1.77"/><line class="cls-4" x1="107.27" y1="58.33" x2="101.42" y2="69.29"/><line class="cls-4" x1="112.97" y1="58.33" x2="118.2" y2="69.29"/><rect class="cls-2" x="1182.28" y="937.66" width="3.63" height="17.46" rx="1.82" ry="1.82" transform="translate(1249.55 996.82) rotate(180)"/><rect class="cls-2" x="1182.4" y="951.81" width="15.09" height="3.54" rx="1.77" ry="1.77" transform="translate(1261.25 1011.2) rotate(180)"/><line class="cls-4" x1="73.77" y1="58.32" x2="79.62" y2="69.29"/><line class="cls-4" x1="68.07" y1="58.32" x2="62.84" y2="69.29"/><ellipse class="cls-2" cx="32.8" cy="69.35" rx="8.09" ry="6.61"/><ellipse class="cls-2" cx="148.14" cy="69.29" rx="8.09" ry="6.61"/><text x="-1118.64" y="-895.95"/></svg>