<svg id="home_page_illustrations" data-name="home page illustrations" xmlns="http://www.w3.org/2000/svg" xmlns:xlink="http://www.w3.org/1999/xlink" viewBox="0 0 139.43 108.52"><defs><style>.cls-1{fill:url(#linear-gradient);}.cls-2{fill:#4a396e;}.cls-3{fill:#c1bdd1;}</style><linearGradient id="linear-gradient" x1="1395.61" y1="940.46" x2="1535.04" y2="940.46" gradientUnits="userSpaceOnUse"><stop offset="0" stop-color="#93278f"/><stop offset="1" stop-color="#f7931e"/></linearGradient></defs><title>comfortable</title><path class="cls-1" d="M1504.86,899.93c17-.78,23.33-4.26,27.33,1.34,5,7,3.22,23.7-3.68,32.76-8.82,11.57-21.61,4.84-26.8,16-3.48,7.53,1.32,12.66-2.63,21.39-5.46,12.06-19.33,12.68-20,12.7-2.4.07-11.37,0.31-16.82-7.35-6.22-8.76-2-19.64-6.83-23.4-4.48-3.48-9.73,4.6-20.49,8-10.95,3.48-28.67,2.47-35.73-11.37-4.83-9.46-5.8-27.12,3.15-35.43,6.81-6.32,13.85,8.25,28.38,7.35,16-1,17-18,36.26-24.07C1479.55,894,1479.49,901.1,1504.86,899.93Z" transform="translate(-1395.61 -875.67)"/><path class="cls-2" d="M1512,919.06c2.39,1.66,5.26,3.65,6.91,7.67,2.63,6.39.64,13.49-2.91,22.78-2.78,7.27-3.76,11.12-6.55,12.56-5.76,3-13.8-3.56-17.82-9.37-3-4.38-4-8.69-5.27-14.27-2.16-9.51-3.57-15.71-.91-20C1490,911.11,1503.72,913.33,1512,919.06Z" transform="translate(-1395.61 -875.67)"/><path class="cls-3" d="M1484.68,908.33c6.5-.08,11.34,2.05,18.27,5.32,15.2,7.15,15.84,8.16,15.74,9-0.28,2.66-7.26,4.9-13.21,4.52-4.61-.3-9.32-3.39-18.55-9.57-7.68-5.14-8.79-6.71-8.43-7.71C1479,908.39,1482.91,908.35,1484.68,908.33Z" transform="translate(-1395.61 -875.67)"/><path class="cls-3" d="M1485.2,908.91c3.82-15-5.31-29.69-18.39-32.69-13.92-3.19-27.36,7.94-29.42,17.57-1.22,5.69,2.07,8.42,3.27,24.92,0.29,4.06.08,3.73,0.41,10.21,0.77,15.35,1.15,23,3.27,25.74,6.76,8.67,32.49,9.36,43.72-6.54C1495.78,937.2,1494.83,921,1485.2,908.91Z" transform="translate(-1395.61 -875.67)"/><path class="cls-2" d="M1485.9,915.79c-3.63-2-7.75-2-15.86-2-15.12.05-22.68,0.08-26.08,5-5.73,8.25,1.08,24.66,6.87,33.07,1.57,2.29,11.31,16.44,26.43,16.14,2.65-.05,12-0.24,18-8.37,4.93-6.66,4.68-14.66,4.58-17.73C1499.5,931.75,1494.56,920.55,1485.9,915.79Z" transform="translate(-1395.61 -875.67)"/><path class="cls-3" d="M1458.88,939c2.91-7.5,12.7-9.66,16.59-10.52,10.76-2.38,28.47-.72,32.62,10.29,2.74,7.27-1.61,15.52-6.07,20-7.91,8-21.07,9.2-30.55,4C1463,958.25,1455.57,947.55,1458.88,939Z" transform="translate(-1395.61 -875.67)"/><path class="cls-2" d="M1453.23,928.4c-8.26-4.21-10-9.16-14-8.36-6.95,1.37-8.42,17.06-8.68,19.89-0.65,7-1.18,12.64,2.23,18.5,7,12,25.33,16.08,38.74,13.73,4-.71,9.74-1.71,13.8-6,8.17-8.56,5.12-25.49-4.45-31.83C1472.83,929.06,1465.73,934.77,1453.23,928.4Z" transform="translate(-1395.61 -875.67)"/><path class="cls-3" d="M1444.66,916.37a94.51,94.51,0,0,0,24.92,13.07c6.45,2.2,12.74,3.49,13.89,7.76,0.78,2.88-.87,6.79-3.68,8.58-7,4.44-20.07-4.9-32.69-13.89-6.71-4.79-15.13-10.79-13.89-13.89C1434.14,915.71,1440,915.89,1444.66,916.37Z" transform="translate(-1395.61 -875.67)"/></svg>