<svg id="home_page_illustrations" data-name="home page illustrations" xmlns="http://www.w3.org/2000/svg" xmlns:xlink="http://www.w3.org/1999/xlink" viewBox="0 0 145.25 100.46"><defs><style>.cls-1{fill:url(#linear-gradient);}.cls-2{fill:#c1bdd1;}.cls-3{fill:#4a396e;}</style><linearGradient id="linear-gradient" x1="1646.96" y1="939.51" x2="1792.2" y2="939.51" gradientUnits="userSpaceOnUse"><stop offset="0" stop-color="#93278f"/><stop offset="1" stop-color="#f7931e"/></linearGradient></defs><title>compact</title><path class="cls-1" d="M1672.81,893.07c-9.63-.43-17.9.72-22.37,7.06-5.27,7.47-4,20.36,0,28.86,3.6,7.67,7.6,7.89,9.75,14.11,3.49,10.1-8.17,16.49-6.31,27.58a20.21,20.21,0,0,0,10.32,14.11c11.49,5.61,20.23-9.64,39.57-13.47,20.57-4.08,23.73,10,44.16,7.7,20.7-2.31,20.85-15.75,32.48-29,10-11.38,17.07-26.32,6.66-33.19s-15.27,4.13-28.24,5.76C1728,926.45,1715.84,895,1672.81,893.07Z" transform="translate(-1646.96 -885.56)"/><path class="cls-2" d="M1719.56,890.93c-8.19-7.13-20.09-7-27.33-.49-5.95,5.37-7.95,14.36-4.88,22.45a16.76,16.76,0,0,0-11.23,13.67c-1,8.13,4.77,13.61,5.37,14.15a13.17,13.17,0,0,0-11.23,12.69c-0.13,7,5.73,12,11.23,13.18a15.05,15.05,0,0,0,10.74-2,15.41,15.41,0,0,0,8.79,7.81c5.73,1.82,12.31-.29,16.6-5.37,0.11,0.41,2.71,9.35,10.25,11.23,8.47,2.11,16-6.25,18.06-14.64,1.29-5.29-3.31-8-5.46-10.13,3.35,0.93,10.3-4,12.78-8.42,3.51-6.32,2.05-14.29-2.92-16.8,6.18,0.58,11.8-9.11,12.19-16.39,0.34-6.37-4.73-12.18-10.74-13.67a14.66,14.66,0,0,0-10.25,1.46A13.2,13.2,0,0,0,1719.56,890.93Z" transform="translate(-1646.96 -885.56)"/><path class="cls-3" d="M1719.56,890.93l-0.33.83c-0.22.54-.53,1.34-1,2.32s-1,2.19-1.73,3.53-1.51,2.85-2.41,4.47l-2.83,5.23c-1,1.86-1.89,3.85-2.82,5.92s-1.7,4.28-2.51,6.52-1.49,4.61-2.23,7l-2.39,7c-0.77,2.31-1.64,4.54-2.4,6.72s-1.54,4.27-2.21,6.26-1.26,3.89-1.79,5.65-0.92,3.4-1.27,4.85-0.63,2.74-.84,3.8l-0.68,3.35,0-.89c0-.58-0.06-1.44,0-2.53s0.05-2.42.18-3.94,0.31-3.23.61-5.09,0.68-3.86,1.22-5.95,1.09-4.28,1.77-6.5,1.35-4.53,2.12-6.84l2.26-7c0.78-2.34,1.54-4.68,2.38-7a69.38,69.38,0,0,1,2.92-6.7,77.53,77.53,0,0,1,6.79-10.91l3-4.09c0.88-1.22,1.67-2.27,2.28-3.16Z" transform="translate(-1646.96 -885.56)"/><path class="cls-3" d="M1741.36,900l-0.29.76c-0.2.49-.46,1.23-0.89,2.13-0.8,1.83-2.06,4.38-3.7,7.34l-2.6,4.77c-0.92,1.68-1.78,3.49-2.69,5.35s-1.68,3.85-2.46,5.87-1.47,4.1-2.14,6.23L1722.52,945c-0.62,2-1.22,3.92-1.71,5.75s-0.89,3.58-1.2,5.22l-1.42,8c-0.35,1.95-.59,3.06-0.59,3.06s-0.07-1.14-.13-3.12c0-1-.06-2.19-0.05-3.57s0-2.95.12-4.66a59.2,59.2,0,0,1,1.89-11.58c0.53-2.07,1.08-4.19,1.71-6.33s1.3-4.29,2-6.44c0.34-1.07.73-2.17,1.09-3.25s0.81-2.14,1.24-3.19c0.86-2.1,1.87-4.1,2.88-6a84.37,84.37,0,0,1,6.38-9.79c2-2.73,3.69-5,4.83-6.58Z" transform="translate(-1646.96 -885.56)"/><path class="cls-3" d="M1686.58,913s1-.51,2.83-1.29c0.91-.39,2-0.85,3.36-1.28a35.07,35.07,0,0,1,4.55-1.19c0.85-.16,1.74-0.33,2.67-0.43l1.42-.16,1.47-.07c1-.07,2-0.06,3.07,0a31.39,31.39,0,0,1,3.2.2c1.09,0.07,2.17.27,3.28,0.44s2.21,0.41,3.32.67,2.22,0.54,3.31.89,2.21,0.66,3.28,1.07,2.17,0.78,3.21,1.23l3.12,1.38c2,0.92,4,1.89,5.85,2.8s3.71,1.85,5.43,2.75,3.34,1.81,4.8,2.72a33,33,0,0,1,3.83,2.75,20.62,20.62,0,0,1,2.58,2.57,16.6,16.6,0,0,1,1.38,1.87l0.43,0.69-0.6-.54c-0.38-.37-1-0.85-1.74-1.45a28.33,28.33,0,0,0-2.9-1.9c-1.17-.65-2.52-1.31-4-2s-3.19-1.32-5-2l-5.63-2.23c-2-.79-4-1.65-6-2.5l-3-1.24c-1-.43-2-0.76-3.07-1.14s-2.06-.73-3.1-1l-1.55-.5c-0.52-.16-1-0.28-1.56-0.42a60.71,60.71,0,0,0-6.12-1.36c-1-.17-2-0.33-3-0.43s-1.93-.23-2.86-0.26l-1.38-.07h-1.34c-0.88,0-1.73,0-2.55,0-1.64.09-3.15,0.24-4.49,0.42s-2.51.39-3.48,0.57C1687.71,912.81,1686.58,913,1686.58,913Z" transform="translate(-1646.96 -885.56)"/><path class="cls-3" d="M1681.13,940.86s0.93-.48,2.6-1.23c0.84-.36,1.86-0.81,3.08-1.23,0.6-.22,1.26-0.41,2-0.64s1.44-.37,2.22-0.57l2.45-.47c0.86-.11,1.74-0.21,2.66-0.3s1.86-.11,2.83-0.13,2,0,3,.08,2,0.17,3,.3l3.09,0.51c1,0.23,2.06.46,3.09,0.72s2,0.6,3.06.9,2,0.67,3,1.05,2,0.72,2.92,1.17c1.91,0.85,3.75,1.7,5.47,2.58l5,2.46c1.6,0.77,3.1,1.51,4.5,2.26a22.24,22.24,0,0,1,3.72,2.34,12.76,12.76,0,0,1,2.36,2.45,18.51,18.51,0,0,1,1.19,1.78l0.38,0.65-0.56-.51c-0.35-.34-0.89-0.81-1.58-1.38a15,15,0,0,0-2.62-1.74,30.74,30.74,0,0,0-3.8-1.53c-2.91-1-6.38-2.14-10-3.61l-5.48-2.22c-0.91-.4-1.88-0.67-2.81-1s-1.89-.69-2.86-1-1.91-.64-2.88-0.88l-2.88-.76-2.86-.61-2.81-.46c-0.93-.13-1.84-0.19-2.74-0.32s-1.78-.11-2.64-0.17l-2.51,0-2.35.09c-1.51.13-2.9,0.26-4.13,0.43s-2.32.36-3.21,0.52C1682.17,940.7,1681.13,940.86,1681.13,940.86Z" transform="translate(-1646.96 -885.56)"/><path class="cls-3" d="M1741.36,899.59l-7-3.79c-1-.55-2.18-1.13-3.38-1.72a35.57,35.57,0,0,0-3.82-1.59,10.51,10.51,0,0,0-2-.49,2.44,2.44,0,0,0-1.45.16l-0.08.06,0.1-.1h0l0,0,0,0.06-0.09.11a0.85,0.85,0,0,0-.15.2,0.27,0.27,0,0,1,0,.09,1.4,1.4,0,0,0-.09.31,1.71,1.71,0,0,0-.08.43,6.12,6.12,0,0,0,.11,2,10.35,10.35,0,0,0,1.58,3.9,10,10,0,0,0,2.84,2.9l0.2,0.14,0.19,0.11,0.48,0.26c0.32,0.17.57,0.24,0.86,0.38l0.9,0.3c0.31,0.06.61,0.14,0.92,0.19a10.58,10.58,0,0,0,3.52-.07,11.27,11.27,0,0,0,4.91-2.34A12.71,12.71,0,0,0,1741,900Zm0,0-0.28.5a9.28,9.28,0,0,1-.92,1.36,10.74,10.74,0,0,1-4.9,3.35,10.65,10.65,0,0,1-4.08.52c-0.37,0-.74-0.09-1.12-0.13s-0.75-.16-1.14-0.26a11.76,11.76,0,0,1-1.15-.42l-0.5-.23-0.3-.15-0.26-.16a11.24,11.24,0,0,1-3.67-3.42,12.63,12.63,0,0,1-2-4.76,8.45,8.45,0,0,1-.09-2.74,3.63,3.63,0,0,1,.15-0.73,3.36,3.36,0,0,1,.3-0.8c0.08-.15.16-0.3,0.24-0.44a1.85,1.85,0,0,1,.2-0.26l0.09-.11,0-.06,0,0h0l0.12-.13,0.39-.29a4.28,4.28,0,0,1,3-.42,12.61,12.61,0,0,1,2.37.71,26.71,26.71,0,0,1,3.94,2c1.2,0.7,2.27,1.44,3.25,2.13,2,1.38,3.51,2.64,4.57,3.53S1741.36,899.59,1741.36,899.59Z" transform="translate(-1646.96 -885.56)"/><path class="cls-3" d="M1741.32,899.39l0.27-.48a10.27,10.27,0,0,1,.82-1.34,12.7,12.7,0,0,1,1.59-1.9,13.2,13.2,0,0,1,2.56-2,12.94,12.94,0,0,1,3.62-1.51,10.62,10.62,0,0,1,4.5-.15,8.89,8.89,0,0,1,4.43,2.24,11.45,11.45,0,0,1,2.83,4.2,7.36,7.36,0,0,1,.48,2.69,4.3,4.3,0,0,1-.31,1.52,2,2,0,0,1-.19.38l-0.11.19-0.06.09,0,0v0l-0.09.11-0.19.21-0.1.1-0.18.15a3.21,3.21,0,0,1-.74.49,3.28,3.28,0,0,1-.69.28,6.61,6.61,0,0,1-1.33.25,12.09,12.09,0,0,1-2.4-.08,23.5,23.5,0,0,1-4.18-.94c-1.29-.38-2.47-0.82-3.55-1.25-2.16-.85-3.89-1.69-5.09-2.3S1741.32,899.39,1741.32,899.39Zm0,0,7.39,2c1.1,0.28,2.3.56,3.56,0.82a30.64,30.64,0,0,0,3.94.57,10,10,0,0,0,2,0,4.33,4.33,0,0,0,.84-0.21,1.29,1.29,0,0,0,.34-0.15,1.47,1.47,0,0,0,.2-0.12l0,0,0.09-.11,0.19-.21-0.07.08h0v0l0-.06a0.36,0.36,0,0,0,.06-0.13,2,2,0,0,0,.11-0.7,5.14,5.14,0,0,0-.37-1.79,9.11,9.11,0,0,0-2.17-3.35,7.18,7.18,0,0,0-3.27-1.85,9.93,9.93,0,0,0-3.71-.16,13,13,0,0,0-4.72,1.69,11,11,0,0,0-1.21.77,16.06,16.06,0,0,0-1.82,1.5,15.2,15.2,0,0,0-1.08,1.11Z" transform="translate(-1646.96 -885.56)"/><path class="cls-3" d="M1740.78,899.71s0,0.3-.17.82a12.16,12.16,0,0,1-.75,2.09,14.73,14.73,0,0,1-1.62,2.71,14,14,0,0,1-1.16,1.37c-0.43.44-.88,0.86-1.35,1.27s-1,.77-1.49,1.08a15,15,0,0,1-4.55,2,12.27,12.27,0,0,1-2.19.33c-0.53,0-.84,0-0.84,0l0.75-.36c0.47-.23,1.14-0.55,1.92-1s1.65-.91,2.55-1.49c0.46-.28.9-0.62,1.34-0.92s0.9-.68,1.34-1.05,0.87-.73,1.27-1.11,0.81-.76,1.17-1.16c0.74-.77,1.4-1.54,2-2.22s1-1.28,1.31-1.7Z" transform="translate(-1646.96 -885.56)"/><path class="cls-3" d="M1741.38,899.42a6.19,6.19,0,0,0-.11.78,10.08,10.08,0,0,0,.05,2,18.77,18.77,0,0,0,.55,2.74c0.13,0.49.3,1,.47,1.5,0.08,0.26.17,0.51,0.27,0.76l0.07,0.19,0.07,0.16c0.06,0.13.11,0.27,0.17,0.38a8,8,0,0,0,.76,1.27,14.34,14.34,0,0,0,1,1.18,25.43,25.43,0,0,0,2,1.94l2.2,1.85s-0.29-.06-0.78-0.2a12.77,12.77,0,0,1-2-.77,11.71,11.71,0,0,1-2.57-1.65,8.74,8.74,0,0,1-2.29-2.89l-0.16-.4L1741,908l-0.07-.21c-0.1-.28-0.18-0.56-0.26-0.85a12.82,12.82,0,0,1-.35-1.7,10.42,10.42,0,0,1,0-3.08,6.27,6.27,0,0,1,.64-2.08,3.43,3.43,0,0,1,.33-0.51Z" transform="translate(-1646.96 -885.56)"/></svg>