<svg id="home_page_illustrations" data-name="home page illustrations" xmlns="http://www.w3.org/2000/svg" xmlns:xlink="http://www.w3.org/1999/xlink" viewBox="0 0 566.32 273.18"><defs><style>.cls-1{fill:url(#linear-gradient);}.cls-2{fill:url(#linear-gradient-2);}.cls-3{fill:#c1bdd1;}.cls-4{fill:#4a396e;}.cls-5{fill:#1b1464;}.cls-10,.cls-14,.cls-15,.cls-6{fill:none;stroke:#4a396e;stroke-miterlimit:10;}.cls-14,.cls-6{stroke-linecap:round;}.cls-6{stroke-width:2.01px;}.cls-7{fill:url(#linear-gradient-3);}.cls-8{fill:url(#linear-gradient-4);}.cls-9{fill:url(#linear-gradient-5);}.cls-11{fill:url(#linear-gradient-6);}.cls-12{fill:url(#linear-gradient-7);}.cls-13{fill:url(#linear-gradient-8);}.cls-14{stroke-width:2.09px;}.cls-15{stroke-width:1.04px;}.cls-16{fill:url(#linear-gradient-9);}.cls-17{fill:url(#linear-gradient-10);}</style><linearGradient id="linear-gradient" x1="1283.03" y1="1008.99" x2="264.9" y2="680.44" gradientUnits="userSpaceOnUse"><stop offset="0" stop-color="#93278f"/><stop offset="1" stop-color="#f7931e"/></linearGradient><linearGradient id="linear-gradient-2" x1="401.54" y1="772.25" x2="835.79" y2="772.25" xlink:href="#linear-gradient"/><linearGradient id="linear-gradient-3" x1="455.62" y1="755.49" x2="711.16" y2="770.86" gradientUnits="userSpaceOnUse"><stop offset="0" stop-color="#4a396e"/><stop offset="1" stop-color="#c1bdd1"/></linearGradient><linearGradient id="linear-gradient-4" x1="479.87" y1="732.73" x2="728.13" y2="717.3" xlink:href="#linear-gradient-3"/><linearGradient id="linear-gradient-5" x1="573.01" y1="743.25" x2="645.27" y2="643.01" xlink:href="#linear-gradient-3"/><linearGradient id="linear-gradient-6" x1="733.44" y1="715.96" x2="674.44" y2="896.6" xlink:href="#linear-gradient-3"/><linearGradient id="linear-gradient-7" x1="731" y1="821.41" x2="743.56" y2="705.4" xlink:href="#linear-gradient-3"/><linearGradient id="linear-gradient-8" x1="743.77" y1="881.9" x2="726.64" y2="706.32" xlink:href="#linear-gradient-3"/><linearGradient id="linear-gradient-9" x1="832.78" y1="848.67" x2="884.15" y2="764.98" gradientUnits="userSpaceOnUse"><stop offset="0" stop-color="#ff931e"/><stop offset="1" stop-color="#f7931e" stop-opacity="0.4"/></linearGradient><linearGradient id="linear-gradient-10" x1="365.21" y1="786.48" x2="316.32" y2="827.09" xlink:href="#linear-gradient-9"/></defs><title>OurSpaceIgloos</title><path class="cls-1" d="M440.79,718c-29.27,9.35-72.59,32.29-72.82,58.25-0.11,12.52,9.83,24,3.43,34.27-6.52,10.43-21.2,5.51-29.13,16.28-6.94,9.42-5,25.79,1.71,36,3.3,5,15.43,20.29,82.24,18,37.43-1.29,59.64-7,76.25-9.42C599.6,857,633.65,934,706.36,913.32c15.91-4.53,40.87-27.86,90.81-74.53,72.43-67.7,72.43-85.84,71.11-94.24-4.56-28.88-42.38-54-74.53-51.4-35.61,2.85-38.34,37.56-73.68,57.4C642.09,794.34,555.75,681.29,440.79,718Z" transform="translate(-323.33 -643.7)"/><path class="cls-2" d="M760.44,777.16c-9.81-12.34,8.37-29.2,0-49.24-10.14-24.3-52.75-37.58-76.56-24.39-12.48,6.91-10.06,15.7-23.75,25.44-26.19,18.64-63.59,6.79-66.15,5.94-37.85-12.56-33.86-42.81-68.7-61.07s-91.76-15.87-113.65,17c-16.32,24.47-12,64.14,6.78,85.66,17.5,20.06,42.16,18.19,49.19,39.86,4.66,14.36-4.26,21.07.85,34.77,6.59,17.68,29.6,28.42,48.34,30.53,40.14,4.52,50-31.8,106-41.56,31.05-5.41,57.75.58,66.15,2.54,43.94,10.28,54.2,31.47,89.05,30.53,8.23-.22,38.68-1,51.74-22.9,11.71-19.62,5.48-49.61-11-61.91C798.52,773.26,771.64,791.24,760.44,777.16Z" transform="translate(-323.33 -643.7)"/><circle class="cls-3" cx="186.17" cy="194.64" r="14.14"/><circle class="cls-4" cx="186.17" cy="194.64" r="10.12"/><circle class="cls-5" cx="186.17" cy="194.64" r="7.02"/><path class="cls-6" d="M493.1,833.72c2-7.54,8.53-12.8,15.68-13,8.48-.22,16.32,6.74,17.11,16.16" transform="translate(-323.33 -643.7)"/><line class="cls-6" x1="187.14" y1="177.03" x2="187.77" y2="165.54"/><circle class="cls-3" cx="279.56" cy="188.46" r="9.52"/><circle class="cls-5" cx="279.56" cy="188.46" r="6.81"/><circle class="cls-5" cx="279.56" cy="188.46" r="4.72"/><path class="cls-6" d="M591.86,829.05a11.53,11.53,0,0,1,10.56-8.74c5.71-.15,11,4.54,11.52,10.88" transform="translate(-323.33 -643.7)"/><line class="cls-6" x1="369.27" y1="179.53" x2="369.2" y2="168.02"/><circle class="cls-3" cx="369.11" cy="197.14" r="14.14"/><circle class="cls-4" cx="369.11" cy="197.14" r="10.12"/><circle class="cls-5" cx="369.11" cy="197.24" r="7.02"/><path class="cls-6" d="M676.56,836.22c2-7.54,8.53-12.8,15.68-13,8.48-.22,16.32,6.74,17.11,16.16" transform="translate(-323.33 -643.7)"/><path class="cls-7" d="M489.25,737.6c-12.51,9.41-16.23,19.34-17.1,21.84-6.2,17.9,2.07,35.67,5.55,42.25,28.3,9.67,71.44,18.58,124.73,18.62,45.83,0,94.36-9.85,125.16-19,11.25-23.64,12.16-43.1,1-53.74,0,0-3.68-3.46-13.36-13.3C679.38,697.8,536.81,701.84,489.25,737.6Z" transform="translate(-323.33 -643.7)"/><path class="cls-8" d="M515.19,693.12c-5.08,1.21-14.54,3.63-22.14,11.88-12.31,13.38-11.53,33.21-10.63,42.05a408.06,408.06,0,0,0,122.26,18.57,419.91,419.91,0,0,0,122.17-18.57c2-10.16.31-21.52-9.22-35.65-5.07-7.51-14.29-15.21-17.89-15.66C642.2,688.47,578,678.17,515.19,693.12Z" transform="translate(-323.33 -643.7)"/><path class="cls-9" d="M592.26,645.94c-16.16,1.86-36.56,5.63-60,24.45a106.78,106.78,0,0,0-23.54,26.54,410.57,410.57,0,0,0,92.64,13.52c42.75,1.31,75.91-6.94,102.68-13.17A102.17,102.17,0,0,0,643,648.86C621.52,642.64,605.06,644.38,592.26,645.94Z" transform="translate(-323.33 -643.7)"/><path class="cls-10" d="M603.48,644.61l0.45,0.17,0.24,0.08c4.76,1.71,10.15,3.87,16,6.57,0,0-.29,0-0.25.06a169.94,169.94,0,0,1,55.63,41.24h0a43.8,43.8,0,0,1,5,5.46c1,1.23,2.18,2.47,3.13,3.72a157.75,157.75,0,0,1,26,50,179.61,179.61,0,0,1,7.88,52.18" transform="translate(-323.33 -643.7)"/><path class="cls-11" d="M747.22,795.67C739.78,801,730.9,806,723.45,811.86l-1.74-.16c-14.48-1.68-25.79-2.56-40.27-3.78-1.49-6.31-4.69-14-4.87-25.36-0.22-13.29,1.18-22.29,6.1-28.59,7.31-9.35,20.59-9.83,24.78-9.8,5.52-.6,19.84-1.64,28.68,4.42a16.63,16.63,0,0,1,4.37,4.3c1.38,2,2.42,4.56,4.1,16.45C746.13,780.13,746.85,789.23,747.22,795.67Z" transform="translate(-323.33 -643.7)"/><path class="cls-12" d="M747.22,795.54c-7.44,5.31-16.32,11-23.77,16.31-0.83-6.81-.71-14-1.07-18.42,0,0-1-20.78,2.7-34.19a20.79,20.79,0,0,1,3.35-6.8c1.33-1.79,2.78-3.75,4.95-4.18a4.72,4.72,0,0,1,2.75.32,16.65,16.65,0,0,1,4.37,4.3c1.38,2,2.42,4.5,4.1,16.39C746.13,780.06,746.85,789.1,747.22,795.54Z" transform="translate(-323.33 -643.7)"/><path class="cls-13" d="M728.26,803.9c-0.34-3.23-.63-6.48-0.9-9.8,0-.21-1.66-21.22,1.76-33.76a16.41,16.41,0,0,1,2.66-5.08c0.64-.87,1.45-2.26,2.41-2.26h0c1.23,0,2.08,1.49,2.82,2.57,0.88,1.28,1.81,3.2,3.4,14.44q1.68,11.81,2.45,23.55C738,797,733.14,800.43,728.26,803.9Z" transform="translate(-323.33 -643.7)"/><line class="cls-14" x1="401.56" y1="167.74" x2="402.97" y2="201.64"/><line class="cls-6" x1="402.04" y1="174.65" x2="422.08" y2="160.95"/><line class="cls-14" x1="401.75" y1="183.96" x2="422.94" y2="170.01"/><line class="cls-14" x1="402.56" y1="191.6" x2="423.32" y2="178.46"/><path class="cls-10" d="M603.84,644.9c-16.05,8.39-53.9,26.23-74.29,56.89-4.4,6.63-7,13.81-13,21.75h0c0,0.51.5,1,.28,1.53-15.2,34.57-13.54,66.5-11.32,84.26" transform="translate(-323.33 -643.7)"/><path class="cls-15" d="M548.41,817.12a229.6,229.6,0,0,1,7.38-82.61,224.94,224.94,0,0,1,7.37-22.09q0.93-2.39,1.9-4.7a230.79,230.79,0,0,1,10.65-22.12c9.75-17.74,27.57-40.77,27.77-41" transform="translate(-323.33 -643.7)"/><path class="cls-15" d="M603.48,644.61a1.64,1.64,0,0,1,0,.19c0,0.25.07,0.49,0.08,0.75q2.24,19.56,3.91,40.46,0.88,11.22,1.57,22.8l0.1,1.77q0.78,13.52,1.25,27.54T611,765.56q0.28,28.35-.76,54.65" transform="translate(-323.33 -643.7)"/><path class="cls-15" d="M604.94,644c1.86,2.19,33,29.82,40.71,45.08,2.94,5.82,5.75,12,8.36,18.62,0.54,1.34,1.05,2.71,1.57,4.08q3,8,5.51,16.7A226.64,226.64,0,0,1,668,761.08c2.78,20.75,2,39.14.89,53.81v-0.12" transform="translate(-323.33 -643.7)"/><line class="cls-14" x1="422.23" y1="151.97" x2="423.89" y2="190.22"/><path class="cls-16" d="M874.66,778.77c-13.89,12-17.73,12.32-23.7,20.47-3.88,5.29-9.94,15.63-7,18.85,2.73,3,12.42-1.06,18.31-4.85,9.79-6.29,14.37-15.21,20.47-27.47,2.15-4.33,8.65-17.38,6.46-18.85C887.83,766,884.27,770.49,874.66,778.77Z" transform="translate(-323.33 -643.7)"/><path class="cls-17" d="M347.35,788.69c4.23-.78,11.12-2,15.37,2.27,3.53,3.58,4.66,10.41,1.86,14.5-4.78,7-17.08.12-25.7,7.78-7.38,6.55-4.93,17.4-7.85,17.63-3.34.25-10.7-13.59-6.37-25.67C329.39,792,345.16,789.1,347.35,788.69Z" transform="translate(-323.33 -643.7)"/></svg>