<svg id="Layer_5" data-name="Layer 5" xmlns="http://www.w3.org/2000/svg" viewBox="0 0 955.07 645.68"><defs><style>.cls-1{fill:#fff;}.cls-2,.cls-3,.cls-4,.cls-5{fill:none;stroke:#000;stroke-miterlimit:10;}.cls-2{stroke-width:0.5px;}.cls-4{stroke-width:5px;}.cls-5{stroke-width:7px;}.cls-6{font-size:12px;font-family:Helvetica;}</style></defs><title>bottom</title><rect class="cls-1" width="955.07" height="645.68"/><circle class="cls-1" cx="442.72" cy="329.64" r="246.24"/><rect class="cls-1" x="655.5" y="281.98" width="148.9" height="96.22"/><rect class="cls-2" x="279.97" y="436.14" width="20.98" height="52.7"/><rect class="cls-2" x="282.63" y="438.25" width="15.63" height="48.55"/><rect class="cls-2" x="315.47" y="436.14" width="20.98" height="81.43"/><rect class="cls-2" x="318.12" y="439.39" width="15.63" height="75.01"/><rect class="cls-2" x="354.12" y="436.22" width="20.98" height="101.04"/><rect class="cls-2" x="356.78" y="440.26" width="15.63" height="93.08"/><rect class="cls-2" x="393.75" y="436.22" width="20.98" height="118.78"/><rect class="cls-2" x="396.4" y="440.96" width="15.63" height="109.42"/><rect class="cls-2" x="1793.27" y="-244.36" width="20.98" height="52.7" transform="translate(2396.01 244.53) rotate(-180)"/><rect class="cls-2" x="1795.97" y="-242.25" width="15.63" height="48.55" transform="translate(2396.06 244.59) rotate(-180)"/><rect class="cls-2" x="1757.78" y="-244.36" width="20.98" height="81.43" transform="translate(2325.02 273.26) rotate(-180)"/><rect class="cls-2" x="1760.48" y="-241.11" width="15.63" height="75.01" transform="translate(2325.07 273.34) rotate(-180)"/><rect class="cls-2" x="1679.5" y="-244.28" width="20.98" height="118.78" transform="translate(2168.47 310.77) rotate(-180)"/><rect class="cls-2" x="1682.2" y="-239.53" width="15.63" height="109.42" transform="translate(2168.51 310.89) rotate(-180)"/><rect class="cls-2" x="432.23" y="435.46" width="20.98" height="124.27"/><rect class="cls-2" x="434.88" y="440.42" width="15.63" height="114.48"/><circle class="cls-2" cx="442.72" cy="329.64" r="9.57"/><rect class="cls-2" x="475.32" y="245.17" width="27.66" height="26.88"/><circle class="cls-2" cx="495.19" cy="253.35" r="3.7"/><circle class="cls-2" cx="494.32" cy="265.42" r="4.28"/><circle class="cls-2" cx="482.48" cy="252.38" r="2.73"/><circle class="cls-2" cx="483.17" cy="266.45" r="2.48"/><rect class="cls-2" x="473.98" y="179.29" width="29" height="29.61"/><rect class="cls-2" x="473.98" y="89.54" width="29" height="182.31"/><path class="cls-3" d="M1711.5-455.42V-449a7.5,7.5,0,0,1-7.5,7.38,7.5,7.5,0,0,1-7.5-7.38v-1.51h3.18a2.19,2.19,0,0,0,1.36-.77,1.89,1.89,0,0,0,.56-1.33,1.9,1.9,0,0,0-1.92-1.89h-3.18v-0.92a7.5,7.5,0,0,1,7.49-7.38,7.5,7.5,0,0,1,5.27,2.17A7.39,7.39,0,0,1,1711.5-455.42Z" transform="translate(-1211.52 680.54)"/><circle class="cls-2" cx="1704.11" cy="-452.2" r="2.02" transform="translate(-295.39 1805.53) rotate(-48.59)"/><path class="cls-3" d="M1701.6-452.71a2.32,2.32,0,0,1-.56,1.51,2.11,2.11,0,0,1-1.36.71h-6.48a2.12,2.12,0,0,1-1.93-2.13,1.86,1.86,0,0,1,.57-1.33,1.93,1.93,0,0,1,1.36-.54h6.48A1.81,1.81,0,0,1,1701.6-452.71Z" transform="translate(-1211.52 680.54)"/><path class="cls-3" d="M1761.5-471v-6.43a7.5,7.5,0,0,1,7.5-7.38,7.5,7.5,0,0,1,7.5,7.38v1.92h-3.41a2,2,0,0,0-1.36.57,2.15,2.15,0,0,0-.56,1.44,2,2,0,0,0,1.92,2h3.41V-471a7.6,7.6,0,0,1-7.61,7.38,7.36,7.36,0,0,1-5.22-2.17A7.33,7.33,0,0,1,1761.5-471Z" transform="translate(-1211.52 680.54)"/><circle class="cls-2" cx="1768.66" cy="-474.21" r="2.02" transform="translate(-257.04 1846.5) rotate(-48.59)"/><path class="cls-3" d="M1771.17-473.49a2.06,2.06,0,0,1,.56-1.4,2,2,0,0,1,1.36-.6h6.48a1.93,1.93,0,0,1,1.93,1.93,2.11,2.11,0,0,1-.57,1.44,2,2,0,0,1-1.36.64h-6.48A2,2,0,0,1,1771.17-473.49Z" transform="translate(-1211.52 680.54)"/><rect class="cls-2" x="542.98" y="161.49" width="43.45" height="79.9" rx="7.42" ry="7.42"/><circle class="cls-2" cx="595.96" cy="184.52" r="5.53"/><circle class="cls-2" cx="595.96" cy="206" r="5.53"/><circle class="cls-2" cx="595.96" cy="225.56" r="5.53"/><rect class="cls-2" x="526.07" y="301.33" width="74.54" height="23.49"/><rect class="cls-2" x="604.96" y="306.03" width="10.65" height="13.11"/><path class="cls-2" d="M1827.12-361.4c2.63,0,4.75-2.93,4.75-6.56s-2.12-6.55-4.75-6.55" transform="translate(-1211.52 680.54)"/><rect class="cls-2" x="1795.85" y="-353.88" width="10.65" height="13.11" transform="translate(242.32 -1467.96) rotate(90)"/><path class="cls-2" d="M1794.62-342c0,2.63,2.93,4.75,6.56,4.75s6.55-2.12,6.55-4.75" transform="translate(-1211.52 680.54)"/><rect class="cls-2" x="1762.85" y="-353.88" width="10.65" height="13.11" transform="translate(209.32 -1434.96) rotate(90)"/><path class="cls-2" d="M1761.62-342c0,2.63,2.93,4.75,6.56,4.75s6.55-2.12,6.55-4.75" transform="translate(-1211.52 680.54)"/><rect class="cls-2" x="1745.85" y="-353.88" width="10.65" height="13.11" transform="translate(192.32 -1417.96) rotate(90)"/><path class="cls-2" d="M1744.62-342c0,2.63,2.93,4.75,6.56,4.75s6.55-2.12,6.55-4.75" transform="translate(-1211.52 680.54)"/><rect class="cls-2" x="1723.22" y="-374.51" width="10.65" height="13.11" transform="translate(2245.57 -55.37) rotate(180)"/><path class="cls-2" d="M1723.22-374.51c-2.63,0-4.75,2.93-4.75,6.56s2.12,6.55,4.75,6.55" transform="translate(-1211.52 680.54)"/><rect class="cls-2" x="1779.85" y="-353.88" width="10.65" height="13.11" transform="translate(226.32 -1451.96) rotate(90)"/><path class="cls-2" d="M1778.62-342c0,2.63,2.93,4.75,6.56,4.75s6.55-2.12,6.55-4.75" transform="translate(-1211.52 680.54)"/><rect class="cls-2" x="1794.85" y="-395.14" width="10.65" height="13.11" transform="translate(977.24 2092.13) rotate(-90)"/><path class="cls-2" d="M1806.73-393.9c0-2.63-2.93-4.75-6.55-4.75s-6.56,2.12-6.56,4.75" transform="translate(-1211.52 680.54)"/><rect class="cls-2" x="1761.85" y="-395.14" width="10.65" height="13.11" transform="translate(944.24 2059.13) rotate(-90)"/><path class="cls-2" d="M1773.73-393.9c0-2.63-2.93-4.75-6.55-4.75s-6.56,2.12-6.56,4.75" transform="translate(-1211.52 680.54)"/><rect class="cls-2" x="1744.85" y="-395.14" width="10.65" height="13.11" transform="translate(927.24 2042.13) rotate(-90)"/><path class="cls-2" d="M1756.73-393.9c0-2.63-2.93-4.75-6.55-4.75s-6.56,2.12-6.56,4.75" transform="translate(-1211.52 680.54)"/><rect class="cls-2" x="1778.85" y="-395.14" width="10.65" height="13.11" transform="translate(961.24 2076.13) rotate(-90)"/><path class="cls-2" d="M1790.73-393.9c0-2.63-2.93-4.75-6.55-4.75s-6.56,2.12-6.56,4.75" transform="translate(-1211.52 680.54)"/><rect class="cls-2" x="585.69" y="410.72" width="53.67" height="19.72"/><rect class="cls-2" x="588.85" y="410.72" width="47.49" height="15.83"/><rect class="cls-2" x="620.51" y="410.72" width="15.83" height="15.83"/><rect class="cls-2" x="604.68" y="410.72" width="15.83" height="15.83"/><rect class="cls-2" x="588.85" y="410.72" width="15.83" height="15.83"/><rect class="cls-2" x="1763.56" y="-299.65" width="38.22" height="19.72" transform="translate(281.36 -1391.91) rotate(90)"/><rect class="cls-2" x="1768.78" y="-297.44" width="31.66" height="15.83" transform="translate(283.57 -1393.59) rotate(90)"/><rect class="cls-2" x="1776.7" y="-289.52" width="15.83" height="15.83" transform="translate(291.49 -1385.68) rotate(90)"/><rect class="cls-2" x="1776.7" y="-305.35" width="15.83" height="15.83" transform="translate(275.66 -1401.51) rotate(90)"/><rect class="cls-2" x="1847.91" y="-299.65" width="38.22" height="19.72" transform="translate(365.71 -1476.26) rotate(90)"/><rect class="cls-2" x="1849.24" y="-297.44" width="31.66" height="15.83" transform="translate(364.03 -1474.05) rotate(90)"/><rect class="cls-2" x="1857.16" y="-289.52" width="15.83" height="15.83" transform="translate(371.95 -1466.14) rotate(90)"/><rect class="cls-2" x="1857.16" y="-305.35" width="15.83" height="15.83" transform="translate(356.12 -1481.97) rotate(90)"/><rect class="cls-2" x="592.42" y="388.14" width="41.75" height="16.73"/><rect class="cls-2" x="200.06" y="348.04" width="133.69" height="16.17"/><polygon class="cls-3" points="467.98 348.04 467.98 364.04 465.98 364.04 465.98 430.04 225.98 430.04 225.98 411.04 444.98 411.04 444.98 364.04 364.98 364.04 364.98 348.04 467.98 348.04"/><rect class="cls-2" x="1438.01" y="-352.33" width="8.59" height="16.8" transform="translate(574.71 1778.92) rotate(-90)"/><rect class="cls-2" x="1419.85" y="-372.73" width="44.4" height="21.8" transform="translate(592.36 1760.76) rotate(-90)"/><rect class="cls-2" x="1475.07" y="-352.33" width="8.59" height="16.8" transform="translate(611.78 1815.98) rotate(-90)"/><rect class="cls-2" x="1456.92" y="-372.73" width="44.4" height="21.8" transform="translate(629.43 1797.83) rotate(-90)"/><rect class="cls-2" x="1511.63" y="-352.33" width="8.59" height="16.8" transform="translate(648.34 1852.54) rotate(-90)"/><rect class="cls-2" x="1493.48" y="-372.73" width="44.4" height="21.8" transform="translate(665.99 1834.39) rotate(-90)"/><rect class="cls-2" x="1463.05" y="-460.83" width="10.9" height="34.95" transform="translate(-743.55 1399.94) rotate(-32.49)"/><rect class="cls-2" x="1451.95" y="-464" width="10.9" height="6.41" transform="translate(-735.92 1391.24) rotate(-32.49)"/><rect class="cls-2" x="1453.41" y="-452.96" width="5.74" height="22.58" transform="translate(-746.36 1393.64) rotate(-32.49)"/><rect class="cls-2" x="1472.56" y="-465.16" width="5.74" height="22.58" transform="translate(-736.82 1402.01) rotate(-32.49)"/><rect class="cls-2" x="1491.34" y="-503.14" width="10.9" height="34.95" transform="translate(-716.4 1408.51) rotate(-32.49)"/><rect class="cls-2" x="1480.23" y="-506.31" width="10.9" height="6.41" transform="translate(-708.77 1399.82) rotate(-32.49)"/><rect class="cls-2" x="1481.7" y="-495.27" width="5.74" height="22.58" transform="translate(-719.22 1402.21) rotate(-32.49)"/><rect class="cls-2" x="1500.85" y="-507.46" width="5.74" height="22.58" transform="translate(-709.67 1410.59) rotate(-32.49)"/><rect class="cls-2" x="1525.73" y="-539.19" width="10.9" height="34.95" transform="translate(-691.65 1421.34) rotate(-32.49)"/><rect class="cls-2" x="1514.63" y="-542.36" width="10.9" height="6.41" transform="translate(-684.02 1412.65) rotate(-32.49)"/><rect class="cls-2" x="1516.09" y="-531.32" width="5.74" height="22.58" transform="translate(-694.47 1415.04) rotate(-32.49)"/><rect class="cls-2" x="1535.24" y="-543.52" width="5.74" height="22.58" transform="translate(-684.92 1423.42) rotate(-32.49)"/><rect class="cls-2" x="394.22" y="184.43" width="27.62" height="30.73"/><rect class="cls-2" x="438.18" y="243.53" width="33.03" height="27.86"/><path class="cls-2" d="M1684-462.5h0c-1.93-.81-10.11-4-17,0-0.79.45-6.07,3.51-5.67,7.32,0.31,3,3.9,4.73,5.54,5.54,6.76,3.32,14,1.08,16.94,0" transform="translate(-1211.52 680.54)"/><rect class="cls-2" x="455.94" y="218.58" width="11.56" height="11.56" rx="5.78" ry="5.78"/><path class="cls-3" d="M1629.5-484.42V-478a7.5,7.5,0,0,1-7.5,7.38,7.5,7.5,0,0,1-7.5-7.38v-1.51h3.18a2.19,2.19,0,0,0,1.36-.77,1.89,1.89,0,0,0,.56-1.33,1.9,1.9,0,0,0-1.92-1.89h-3.18v-0.92a7.5,7.5,0,0,1,7.49-7.38,7.5,7.5,0,0,1,5.27,2.17A7.39,7.39,0,0,1,1629.5-484.42Z" transform="translate(-1211.52 680.54)"/><circle class="cls-2" cx="1622.11" cy="-481.2" r="2.02" transform="translate(-301.41 1734.21) rotate(-48.59)"/><path class="cls-3" d="M1619.6-481.71a2.32,2.32,0,0,1-.56,1.51,2.11,2.11,0,0,1-1.36.71h-6.48a2.12,2.12,0,0,1-1.93-2.13,1.86,1.86,0,0,1,.57-1.33,1.93,1.93,0,0,1,1.36-.54h6.48A1.81,1.81,0,0,1,1619.6-481.71Z" transform="translate(-1211.52 680.54)"/><rect class="cls-2" x="394.22" y="93.43" width="27.62" height="30.73"/><rect class="cls-2" x="438.18" y="152.53" width="33.03" height="27.86"/><path class="cls-2" d="M1684-553.5h0c-1.93-.81-10.11-4-17,0-0.79.45-6.07,3.51-5.67,7.32,0.31,3,3.9,4.73,5.54,5.54,6.76,3.32,14,1.08,16.94,0" transform="translate(-1211.52 680.54)"/><rect class="cls-2" x="455.94" y="127.58" width="11.56" height="11.56" rx="5.78" ry="5.78"/><path class="cls-3" d="M1629.5-575.42V-569a7.5,7.5,0,0,1-7.5,7.38,7.5,7.5,0,0,1-7.5-7.38v-1.51h3.18a2.19,2.19,0,0,0,1.36-.77,1.89,1.89,0,0,0,.56-1.33,1.9,1.9,0,0,0-1.92-1.89h-3.18v-0.92a7.5,7.5,0,0,1,7.49-7.38,7.5,7.5,0,0,1,5.27,2.17A7.39,7.39,0,0,1,1629.5-575.42Z" transform="translate(-1211.52 680.54)"/><circle class="cls-2" cx="1622.11" cy="-572.2" r="2.02" transform="translate(-233.16 1703.4) rotate(-48.59)"/><path class="cls-3" d="M1619.6-572.71a2.32,2.32,0,0,1-.56,1.51,2.11,2.11,0,0,1-1.36.71h-6.48a2.12,2.12,0,0,1-1.93-2.13,1.86,1.86,0,0,1,.57-1.33,1.93,1.93,0,0,1,1.36-.54h6.48A1.81,1.81,0,0,1,1619.6-572.71Z" transform="translate(-1211.52 680.54)"/><rect class="cls-2" x="683.29" y="281.98" width="119.94" height="30.6"/><rect class="cls-2" x="683.29" y="350.58" width="119.94" height="27.62"/><path class="cls-2" d="M1894.81-337.49l-21.13.24c0-.66-0.45-11.31,7.64-17.2a17.69,17.69,0,0,1,12.82-3.06" transform="translate(-1211.52 680.54)"/><path class="cls-2" d="M1714.28-244.9L1714-269c0.75,0,12.87-.51,19.58,8.7a20.14,20.14,0,0,1,3.49,14.59" transform="translate(-1211.52 680.54)"/><path class="cls-2" d="M1551.26-332.9l-0.25-22c0.69,0,11.78-.47,17.91,8a18.42,18.42,0,0,1,3.19,13.35" transform="translate(-1211.52 680.54)"/><path class="cls-2" d="M1605.69-441.84l-20.64.23c0-.65-0.44-11,7.47-16.8a17.28,17.28,0,0,1,12.52-3" transform="translate(-1211.52 680.54)"/><path class="cls-2" d="M1605.69-534.84l-20.64.23c0-.65-0.44-11,7.47-16.8a17.28,17.28,0,0,1,12.52-3" transform="translate(-1211.52 680.54)"/><line class="cls-4" x1="502.48" y1="433.04" x2="216.48" y2="433.04"/><path class="cls-5" d="M1894.8-303.15c-22.21,112.57-121.47,197.47-240.56,197.47-135.43,0-245.22-109.79-245.22-245.21s109.79-245.22,245.22-245.22c119.12,0,218.39,84.94,240.57,197.55" transform="translate(-1211.52 680.54)"/><line class="cls-4" x1="525.48" y1="434.04" x2="664.48" y2="434.04"/><polyline class="cls-4" points="361.48 348.04 467.98 348.04 467.98 433.54"/><line class="cls-4" x1="197.48" y1="348.04" x2="339.48" y2="348.04"/><line class="cls-4" x1="681.48" y1="274.04" x2="660.48" y2="274.04"/><polyline class="cls-4" points="473.98 86.54 473.98 274.04 617.48 274.04"/><polyline class="cls-4" points="391.98 237.54 391.98 274.54 473.98 273.93"/><line class="cls-4" x1="391.98" y1="144.54" x2="391.98" y2="222.54"/><line class="cls-4" x1="391.98" y1="89.54" x2="391.98" y2="127.54"/><line class="cls-4" x1="473.48" y1="182.04" x2="391.48" y2="182.04"/><path class="cls-4" d="M1894.8-357.17" transform="translate(-1211.52 680.54)"/><polyline class="cls-4" points="683.28 323.37 683.28 281.98 803.24 281.98 803.24 378.2 683.28 378.2 683.28 342.23"/><text class="cls-6" transform="translate(724.59 333.21)">Airlock</text><text class="cls-6" transform="translate(426.66 312.58)">Ladder</text><text class="cls-6" transform="translate(583.69 383.1)">Living<tspan x="31.35" y="0"> </tspan><tspan x="34.03" y="0">Area</tspan></text><text class="cls-6" transform="translate(526.07 316.41)">Dinning<tspan x="40.69" y="0"> </tspan><tspan x="43.37" y="0">Area</tspan></text><text class="cls-6" transform="translate(483.17 484.27)">Greenhouse</text><text class="cls-6" transform="translate(309.15 391.02)">Storage</text><text class="cls-6" transform="translate(296.01 249.65)">Gym</text><text class="cls-6" transform="translate(401.37 139.14)">Bathroom 1</text><text class="cls-6" transform="translate(401.37 232.64)">Bathroom 2</text><text class="cls-6" transform="translate(545.21 190.05)">Kitchen</text></svg>