<svg id="plants" xmlns="http://www.w3.org/2000/svg" xmlns:xlink="http://www.w3.org/1999/xlink" viewBox="0 0 338.9 233.97"><defs><style>.cls-1,.cls-10,.cls-33,.cls-9{fill:none;}.cls-2{clip-path:url(#clip-path);}.cls-3{fill:url(#linear-gradient);}.cls-4{fill:url(#linear-gradient-2);}.cls-5{fill:url(#linear-gradient-3);}.cls-6{fill:url(#linear-gradient-4);}.cls-7{fill:#7fe200;}.cls-8{fill:url(#linear-gradient-5);}.cls-9{stroke:#f2f2f2;}.cls-10,.cls-33,.cls-9{stroke-miterlimit:10;}.cls-10,.cls-33{stroke:#4a396e;}.cls-11{fill:url(#linear-gradient-6);}.cls-12{fill:url(#linear-gradient-7);}.cls-13{fill:url(#linear-gradient-8);}.cls-14{fill:url(#linear-gradient-9);}.cls-15{fill:url(#linear-gradient-10);}.cls-16{fill:url(#linear-gradient-11);}.cls-17{fill:url(#linear-gradient-12);}.cls-18{fill:url(#linear-gradient-13);}.cls-19{fill:url(#linear-gradient-14);}.cls-20{fill:url(#linear-gradient-15);}.cls-21{fill:url(#linear-gradient-16);}.cls-22{fill:#4a396e;}.cls-23{fill:url(#linear-gradient-17);}.cls-24{fill:url(#linear-gradient-18);}.cls-25{fill:url(#linear-gradient-19);}.cls-26{fill:url(#linear-gradient-20);}.cls-27{fill:#efb881;}.cls-28{fill:url(#linear-gradient-21);}.cls-29{fill:#f2f2f2;}.cls-30{fill:url(#linear-gradient-22);}.cls-31{fill:url(#linear-gradient-23);}.cls-32{fill:url(#linear-gradient-24);}.cls-33{stroke-linecap:round;}.cls-34{fill:url(#linear-gradient-25);}.cls-35{fill:url(#linear-gradient-26);}.cls-36{fill:url(#linear-gradient-27);}.cls-37{fill:url(#linear-gradient-28);}.cls-38{fill:url(#linear-gradient-29);}</style><clipPath id="clip-path" transform="translate(-2451.5 -602.19)"><path class="cls-1" d="M2766,774.89c-2.84,19.07-27.33,36.25-47.51,36.68a30.59,30.59,0,0,1-9.21-1.13l-0.42-.12a20.15,20.15,0,0,1-2.49-.93,18.57,18.57,0,0,1-1.73-.85l-0.27-.16-0.16-.09a18.18,18.18,0,0,1-1.88-1.27c-0.22-.16-0.42-0.33-0.63-0.51a18.84,18.84,0,0,1-1.93-1.85,28.34,28.34,0,0,1-2.67-3.38c-0.25-.35-0.49-0.72-0.73-1.09-1.12-1.7-2.18-3.51-3.36-5.34a44.62,44.62,0,0,0-5.26-6.87c-0.71-.75-1.48-1.5-2.32-2.23l-0.47-.4c-0.37-.31-0.75-0.61-1.13-0.9-0.19-.15-0.38-0.29-0.58-0.42a29.36,29.36,0,0,0-4.37-2.64c-0.6-.3-1.22-0.57-1.84-0.83a32.54,32.54,0,0,0-3.79-1.3l-0.93-.23c-0.78-.2-1.58-0.37-2.39-0.51-0.32-.06-0.65-0.12-1-0.16-0.76-.12-1.54-0.22-2.33-0.29-0.22,0-.44-0.05-0.67-0.06-0.63-.05-1.27-0.09-1.91-0.12a52.26,52.26,0,0,0-5.85.09c-1.46.09-3,.23-4.46,0.43-2.11.26-4.26,0.62-6.45,1.06L2645,780c-5.18,1.14-10.56,2.69-16.08,4.49l-0.47.15-1.14.38c-4.76,1.57-9.62,3.32-14.54,5.13l-4.31,1.6c-9.11,3.37-18.39,6.87-27.6,9.84l-2.14.69c-0.79.24-1.57,0.49-2.36,0.72a166.27,166.27,0,0,1-19.5,4.8c-12.52,2.21-24.5,2.27-35.29-1.56a46.88,46.88,0,0,1-13.27-7.3,106.54,106.54,0,0,1-24.19-27.19c-6.21-10.3-9.55-21.18-6.09-30,5.09-12.93,24-16.93,37.71-22.26a44.23,44.23,0,0,0,9.62-4.84c2.92-2.1,4.85-4.58,5.24-7.75a15.58,15.58,0,0,0-1.11-7.74c-3.7-9.54-14.59-18.12-14-31.35a46.22,46.22,0,0,1,1-7.66c2.21-10.26,8-17.29,15.8-21.44,20.94-11.07,37.85-4.54,58.38-11.81,30.36-10.74,31.64-22.77,50.85-24.52,22.39-2,37.45,12.78,37.45,36,0,20.44-12.13,29.63-7.73,44.48,1.41,4.76,4.79,7.74,9.61,10.29,2.57,1.37,5.55,2.62,8.86,4,4.38,1.77,9.34,3.72,14.67,6.31a158.85,158.85,0,0,1,23.23,14C2749.34,733.29,2768.91,755.41,2766,774.89Z"/></clipPath><linearGradient id="linear-gradient" x1="2671.97" y1="627.51" x2="2578.88" y2="912.79" gradientUnits="userSpaceOnUse"><stop offset="0" stop-color="#00b8c5"/><stop offset="1" stop-color="#4a396e"/></linearGradient><linearGradient id="linear-gradient-2" x1="2815.58" y1="896.73" x2="2350.64" y2="578.9" xlink:href="#linear-gradient"/><linearGradient id="linear-gradient-3" x1="2598.01" y1="715.73" x2="2556.67" y2="733.21" xlink:href="#linear-gradient"/><linearGradient id="linear-gradient-4" x1="2708.7" y1="869.56" x2="2745.16" y2="869.56" gradientTransform="matrix(0.86, -0.06, 0.16, 0.97, 44.74, 39.67)" xlink:href="#linear-gradient"/><linearGradient id="linear-gradient-5" x1="2540.06" y1="723.63" x2="2566.42" y2="723.63" gradientUnits="userSpaceOnUse"><stop offset="0" stop-color="#7fe200"/><stop offset="0.36" stop-color="#54d443"/><stop offset="1" stop-color="#00b8c5"/></linearGradient><linearGradient id="linear-gradient-6" x1="2747.01" y1="763.73" x2="2705.67" y2="781.21" xlink:href="#linear-gradient"/><linearGradient id="linear-gradient-7" x1="2870.69" y1="928.36" x2="2907.15" y2="928.36" gradientTransform="matrix(0.86, -0.06, 0.16, 0.97, 44.74, 39.67)" xlink:href="#linear-gradient"/><linearGradient id="linear-gradient-8" x1="2689.06" y1="771.63" x2="2715.42" y2="771.63" xlink:href="#linear-gradient-5"/><linearGradient id="linear-gradient-9" x1="2601.58" y1="719.76" x2="2589.53" y2="756.7" xlink:href="#linear-gradient"/><linearGradient id="linear-gradient-10" x1="2609.49" y1="736.56" x2="2668.32" y2="788.2" xlink:href="#linear-gradient"/><linearGradient id="linear-gradient-11" x1="2628.99" y1="778.45" x2="2660.39" y2="806.01" xlink:href="#linear-gradient"/><linearGradient id="linear-gradient-12" x1="2708.78" y1="621.97" x2="2637.88" y2="803.84" xlink:href="#linear-gradient"/><linearGradient id="linear-gradient-13" x1="2636.55" y1="721.06" x2="2650.18" y2="721.06" gradientUnits="userSpaceOnUse"><stop offset="0" stop-color="#ff4c74"/><stop offset="1" stop-color="#f7931e"/></linearGradient><linearGradient id="linear-gradient-14" x1="2621.23" y1="784.92" x2="2671.5" y2="784.92" gradientUnits="userSpaceOnUse"><stop offset="0" stop-color="#ff4c74"/><stop offset="1" stop-color="#4a396e"/></linearGradient><linearGradient id="linear-gradient-15" x1="2603.72" y1="788.83" x2="2661.06" y2="788.83" xlink:href="#linear-gradient-14"/><linearGradient id="linear-gradient-16" x1="2672.2" y1="726.1" x2="2588.66" y2="725.81" xlink:href="#linear-gradient-13"/><linearGradient id="linear-gradient-17" x1="2558.09" y1="741.87" x2="2623.87" y2="799.61" gradientUnits="userSpaceOnUse"><stop offset="0.02" stop-color="#00ffdf"/><stop offset="0.53" stop-color="#00b8c5"/><stop offset="1" stop-color="#4a396e"/></linearGradient><linearGradient id="linear-gradient-18" x1="2614.81" y1="743.41" x2="2587.4" y2="827.42" xlink:href="#linear-gradient"/><linearGradient id="linear-gradient-19" x1="2577.21" y1="717.26" x2="2609.78" y2="717.26" xlink:href="#linear-gradient-13"/><linearGradient id="linear-gradient-20" x1="2607.6" y1="676.46" x2="2606.04" y2="732.43" xlink:href="#linear-gradient-13"/><linearGradient id="linear-gradient-21" x1="2588.43" y1="648.22" x2="2639.61" y2="720.49" xlink:href="#linear-gradient-14"/><linearGradient id="linear-gradient-22" x1="2598.15" y1="806.88" x2="2618.08" y2="806.88" gradientTransform="matrix(1, -0.04, 0.04, 1, -5.82, 18.23)" gradientUnits="userSpaceOnUse"><stop offset="0" stop-color="#00b8c5"/><stop offset="1" stop-color="#7fe200"/></linearGradient><linearGradient id="linear-gradient-23" x1="2568.38" y1="847.5" x2="2596.71" y2="847.5" gradientTransform="translate(-7.67 25.33) rotate(-3.44)" xlink:href="#linear-gradient-22"/><linearGradient id="linear-gradient-24" x1="2418.57" y1="1171.61" x2="2441.64" y2="1194.23" gradientTransform="translate(-23.02 89.51) rotate(-12.34)" gradientUnits="userSpaceOnUse"><stop offset="0" stop-color="#fff"/><stop offset="1" stop-color="#f7931e"/></linearGradient><linearGradient id="linear-gradient-25" x1="2670.02" y1="726.08" x2="2714.07" y2="815.77" xlink:href="#linear-gradient-5"/><linearGradient id="linear-gradient-26" x1="2470" y1="-968.03" x2="2498.6" y2="-909.78" gradientTransform="translate(283.4 -300.02) rotate(45)" gradientUnits="userSpaceOnUse"><stop offset="0" stop-color="#00ffdf"/><stop offset="0.94" stop-color="#00bdc7"/><stop offset="1" stop-color="#00b8c5"/></linearGradient><linearGradient id="linear-gradient-27" x1="2445.01" y1="-685.37" x2="2489.06" y2="-595.68" gradientTransform="translate(233.42 -360.62) rotate(40.97)" xlink:href="#linear-gradient-26"/><linearGradient id="linear-gradient-28" x1="2581.7" y1="1040.89" x2="2612.51" y2="1103.64" gradientTransform="translate(-118.81 -121.57) rotate(-4.03)" xlink:href="#linear-gradient-26"/><linearGradient id="linear-gradient-29" x1="2574.12" y1="1047.32" x2="2618.17" y2="1137.02" gradientTransform="translate(-129.23 -124.71) rotate(-4.03)" xlink:href="#linear-gradient-5"/></defs><title>book</title><g class="cls-2"><path class="cls-3" d="M2783.57,804.41c-20.35,35.84-82.47,33.17-153.67,30.11-16.85-.72-32.16-1.38-46.08-2.27-52.37-3.34-85.19-9.93-107.1-35.58a140.48,140.48,0,0,1-7.85-46.38c0-32.94,11.41-63.44,30.81-88.31a78.19,78.19,0,0,1,16.74-1.83c2.21-10.26,8-17.29,15.8-21.44,20.94-11.07,37.85-4.54,58.38-11.81,30.36-10.74,31.64-22.77,50.85-24.52,22.39-2,37.45,12.78,37.45,36,0,20.44-12.13,29.63-7.73,44.48,1.41,4.76,4.79,7.74,9.61,10.29,1.62-1.32,3.31-2.22,4.85-2.15,2.58,0.13,4.39,3,4.06,5.82,0,0.1,0,.2,0,0.3,4.38,1.77,9.34,3.72,14.67,6.31a158.85,158.85,0,0,1,23.23,14c17.45,0.74,37.25,5.22,49.83,20.46C2791.64,755.28,2794.92,784.41,2783.57,804.41Z" transform="translate(-2451.5 -602.19)"/><path class="cls-4" d="M2783.57,804.41c-20.35,35.84-82.47,33.17-153.67,30.11-16.85-.72-32.16-1.38-46.08-2.27-52.37-3.34-85.19-9.93-107.1-35.58q-1.38-1.62-2.7-3.33c-24.43-31.71-33.33-88.42-4.43-116,8-7.65,18.63-12.8,30.09-15.33a78.19,78.19,0,0,1,16.74-1.83,71.65,71.65,0,0,1,31.55,7c14.67,7.23,22.66,18.58,28.6,30.47,1.4,2.79,2.68,5.62,3.91,8.42,2.12,4.81,4.07,9.57,6.17,14.05l0.15,0.3c0.86,1.83,1.75,3.61,2.69,5.33,0.6,1.1,1.22,2.18,1.87,3.22a44.31,44.31,0,0,0,6,7.82,31.48,31.48,0,0,0,4.26,3.71,31.1,31.1,0,0,0,9.18,4.59l0.08,0a34.7,34.7,0,0,0,3.44.87c7.36,1.42,13.64-.27,20.36-3.41,2.69-1.25,5.45-2.74,8.39-4.35,1.92-1.06,3.91-2.16,6-3.29,1.88-1,3.85-2.06,5.91-3.09l0,0c1.47-.74,3-1.48,4.58-2.2l0.79-.36a121.86,121.86,0,0,1,11.51-4.52c0.78-.26,1.57-0.52,2.38-0.77l2.14-.65a126.14,126.14,0,0,1,14.08-3.22c2.57-.43,5.25-0.81,8-1.12a186.47,186.47,0,0,1,29-1.42c17.45,0.74,37.25,5.22,49.83,20.46C2791.64,755.28,2794.92,784.41,2783.57,804.41Z" transform="translate(-2451.5 -602.19)"/><path class="cls-5" d="M2551.21,762.92c-0.44-3.78-2.95-28.19,11.08-48.14,6.57-9.34,15.24-24.06,23.83-16.94,8.29,6.87,2.36,16,.33,22.86C2579.15,745.34,2555.21,760.47,2551.21,762.92Z" transform="translate(-2451.5 -602.19)"/><path class="cls-6" d="M2552.89,764.48c-0.06-6.66-.75-45.88-18.3-61.44-1.52-1.35-11-9.76-16.32-5.32-4.21,3.52-3.6,13.27-3.45,15.68C2516.44,739.29,2548,761.17,2552.89,764.48Z" transform="translate(-2451.5 -602.19)"/><path class="cls-7" d="M2584.83,727.64a12,12,0,0,1,10,4c4.94,5.88,3.19,16.56-1.75,21.87-3.55,3.81-7.42,3.44-19.19,5.75a197.53,197.53,0,0,0-20.61,5.21,119.86,119.86,0,0,1,16.85-25.91C2577.76,729.7,2581.64,728,2584.83,727.64Z" transform="translate(-2451.5 -602.19)"/><path class="cls-7" d="M2511,752.83a18.89,18.89,0,0,1-2.74-12.42c1.32-8.26,9.61-12.34,16-10.22,4.56,1.52,6.43,5.67,14.47,16.4,6,8,11.27,14.12,14.88,18.14a82.09,82.09,0,0,1-27-3C2516.34,758.91,2513,755.91,2511,752.83Z" transform="translate(-2451.5 -602.19)"/><path class="cls-8" d="M2553.33,766.22c-2.3-3.24-11.53-24.14-13.2-52.82-0.58-10,2.36-32.36,14.62-32.36,9.28,0,11.65,14.4,11.68,21.22C2566.54,731.11,2556,761.15,2553.33,766.22Z" transform="translate(-2451.5 -602.19)"/><line class="cls-9" x1="102.11" y1="99.97" x2="101.83" y2="162.29"/><polyline class="cls-9" points="67.93 143.83 101.39 162.29 138.9 136.52"/><line class="cls-10" x1="127.29" y1="107.52" x2="107.08" y2="151.76"/><line class="cls-10" x1="72.47" y1="109.81" x2="96.71" y2="155.64"/><path class="cls-11" d="M2700.21,810.92c-0.44-3.78-2.95-28.19,11.08-48.14,6.57-9.34,15.24-24.06,23.83-16.94,8.29,6.87,2.36,16,.33,22.86C2728.15,793.34,2704.21,808.47,2700.21,810.92Z" transform="translate(-2451.5 -602.19)"/><path class="cls-12" d="M2701.89,812.48c-0.06-6.66-.75-45.88-18.3-61.44-1.52-1.35-11-9.76-16.32-5.32-4.21,3.52-3.6,13.27-3.45,15.68C2665.44,787.29,2697,809.17,2701.89,812.48Z" transform="translate(-2451.5 -602.19)"/><path class="cls-7" d="M2733.83,775.64a12,12,0,0,1,10,4c4.94,5.88,3.19,16.56-1.75,21.87-3.55,3.81-7.42,3.44-19.19,5.75a197.53,197.53,0,0,0-20.61,5.21,119.86,119.86,0,0,1,16.85-25.91C2726.76,777.7,2730.64,776,2733.83,775.64Z" transform="translate(-2451.5 -602.19)"/><path class="cls-7" d="M2660,800.83a18.89,18.89,0,0,1-2.74-12.42c1.32-8.26,9.61-12.34,16-10.22,4.56,1.52,6.43,5.67,14.47,16.4,6,8,11.27,14.12,14.88,18.14a82.09,82.09,0,0,1-27-3C2665.34,806.91,2662,803.91,2660,800.83Z" transform="translate(-2451.5 -602.19)"/><path class="cls-13" d="M2702.33,814.22c-2.3-3.24-11.53-24.14-13.2-52.82-0.58-10,2.36-32.36,14.62-32.36,9.28,0,11.65,14.4,11.68,21.22C2715.54,779.11,2705,809.15,2702.33,814.22Z" transform="translate(-2451.5 -602.19)"/><line class="cls-9" x1="251.11" y1="147.97" x2="250.83" y2="210.29"/><polyline class="cls-9" points="216.93 191.83 250.39 210.29 287.9 184.52"/><line class="cls-10" x1="276.29" y1="155.52" x2="256.08" y2="199.76"/><line class="cls-10" x1="221.47" y1="157.81" x2="245.71" y2="203.64"/><path class="cls-14" d="M2568.33,736.21c-0.65-4.53,5.32-8.72,7.81-10.47,8.68-6.09,26.2-12.27,38.74-2.66,3.53,2.71,10.74,9.79,8.9,15.78-3,9.74-28.28,11.2-45.14,5.15C2569.21,740.64,2568.46,737.07,2568.33,736.21Z" transform="translate(-2451.5 -602.19)"/><path class="cls-15" d="M2627.77,726.26c3.85-1.15,8.06,0,16.31,2.33,17.79,5,32.65,9.53,39.42,22.14,5.23,9.74,2.55,20.7-.78,35.73-2.52,11.38-3.27,17.17-6.8,20.59-12.35,12-49.86,6.3-63.7-17.87C2598.79,765.71,2611.33,731.17,2627.77,726.26Z" transform="translate(-2451.5 -602.19)"/><path class="cls-16" d="M2669.05,775.05c7.13,6.59,7.09,16.52,7,18.63a27.54,27.54,0,0,1-7.38,17.57c-9.31,10.21-28.47,15.62-38.66,6.68-11-9.69-7.84-33,5.62-42.88C2644.86,768.28,2660.13,766.81,2669.05,775.05Z" transform="translate(-2451.5 -602.19)"/><path class="cls-17" d="M2657.4,728.71c-12.82-5.07-29.28-8.43-30.64-5.27-0.79,1.85,3.71,5.59,6.46,7.42,9,6,15.5,2.27,24.42,5.74,12.77,5,17.52,19.67,18,21.06,1.35,4.38.61,7-3.83,29-3.36,16.6-5,24.92-3,26,2.26,1.18,7.35-3.71,10.2-7.63,4.68-6.43,5.4-13,6.17-20.85,2.09-21.58,3.12-32.42,2.21-34.49C2682.52,738.65,2671.11,734.13,2657.4,728.71Z" transform="translate(-2451.5 -602.19)"/><path class="cls-18" d="M2638.77,728.26c0.39,0.59,2.75,4.2,5.68,3.94,3.17-.27,5.34-4.91,5.68-8.36,0.71-7.1-5.76-14.68-9.31-13.88C2637,710.82,2634.54,721.8,2638.77,728.26Z" transform="translate(-2451.5 -602.19)"/><path class="cls-1" d="M2624.79,737.73" transform="translate(-2451.5 -602.19)"/><path class="cls-19" d="M2632.57,747.72a48.32,48.32,0,0,1,22,12c11.45,11.16,13.79,25.55,15.65,37a97.85,97.85,0,0,1,.91,24l-15,1.36c5.17-32.72-1.82-46.54-9.3-53.09-9.76-8.54-25.7-9.35-25.64-14.29C2621.27,751.62,2627.69,749.19,2632.57,747.72Z" transform="translate(-2451.5 -602.19)"/><path class="cls-20" d="M2625.56,753c-4.66-.68-15.35-2.25-19.8,3.7-5.19,6.93.16,21.27,9,26.14,6.23,3.45,10.55.14,16.37,2.11,6.85,2.32,14.18,11.4,16.9,40.4l11.35-.53a133.22,133.22,0,0,0,1.58-26.67c-0.41-10-.62-15-2.9-20.6C2652.51,764.13,2639,755,2625.56,753Z" transform="translate(-2451.5 -602.19)"/><path class="cls-21" d="M2586.07,712.44c-1.18,7.38,3.42,8.87,6.57,24.08,2.53,12.23.2,14.38,3.38,18.11,7.61,8.92,26.67,3.37,35-.8,4-2,5.89-3.84,6.17-6,0.46-3.44-3.6-5.18-5.57-10.15-1.88-4.73-.12-8,0.6-13.73,0.27-2.15,2.2-19.51-7.16-27.46-7.54-6.4-18.73-3.6-20.3-3.18C2595.36,695.84,2587.46,703.81,2586.07,712.44Z" transform="translate(-2451.5 -602.19)"/><ellipse class="cls-22" cx="156.47" cy="71.96" rx="19.1" ry="22.37"/><path class="cls-23" d="M2571,734.28c-2.57,1.74-2.95,5.19-3,15.07-0.17,26.09-.26,39.14,2.74,45.22,10.49,21.26,46.07,37.12,64.13,22.75,13.09-10.42,14.84-35,5.21-48.51-4.65-6.51-8.35-5.37-28.77-15.89C2586,739.88,2576.73,730.42,2571,734.28Z" transform="translate(-2451.5 -602.19)"/><path class="cls-24" d="M2573,725.54c-4,1.81-5.67,9-4.22,14.23,1.93,7,9.12,9.65,27,17.91,19.25,8.91,28.91,13.44,30.77,17,8,15.17-11.49,36.69-4.34,43,3.12,2.75,9.32.85,12.62-1,14.22-7.9,18-38.48,5.52-53.45-7.77-9.33-14.73-4.07-34.12-15.38C2586.54,736.32,2579.56,722.62,2573,725.54Z" transform="translate(-2451.5 -602.19)"/><path class="cls-25" d="M2590.77,695.14c-7.47,4-12.17,12.23-13.22,20.35-0.29,2.25-2.39,18.45,8.76,24.36,7,3.69,16.43,2,23.47-4.31a9.67,9.67,0,0,1-3.71-5.5,9.26,9.26,0,0,1,0-4.16c-4.41,3.51-9.24,4.15-11.29,2.23-2.2-2.06-1-6.85.3-9.51,2.66-5.59,7-5,9.36-9.8,2.5-5.06,1.22-12.93-3.12-15.3C2597.63,691.5,2592.82,694,2590.77,695.14Z" transform="translate(-2451.5 -602.19)"/><path class="cls-26" d="M2599,685a3,3,0,0,0-2,0c-1.93,1.05-2.11,7.84,1.43,11.79s9.88,3.63,13.39,2.48c1.52-.5,4.68-1.53,6.16-4.54,2-4.13-.09-9.92-2.48-10.42-1.33-.27-1.67,1.31-4.75,2.55-1.2.48-5.16,2.09-8,.43C2601.46,686.54,2600.89,685.4,2599,685Z" transform="translate(-2451.5 -602.19)"/><path class="cls-27" d="M2591.47,677c1.47,4.37,4.95,7.25,6.53,8.56,2.56,2.13,6.09,5.06,10.2,4.76,6.82-.5,11.14-9.65,12.48-15.16,0.62-2.54,3.06-12.53-3.5-18.65a15,15,0,0,0-13.06-3.61C2594.24,655,2588.51,668.17,2591.47,677Z" transform="translate(-2451.5 -602.19)"/><path class="cls-28" d="M2589.35,698.31c-8.08-4-8.54-18-8.65-21.37-0.26-8-.78-23.74,11.45-31.3,11.81-7.3,29-3,34.86,6.11,6.21,9.68-3.92,19.61,3.31,31.3,4.83,7.81,11.46,6.8,15,15.27,3.1,7.4,2,17.63-2.54,19.85-5.81,2.84-17.72-7.19-23.16-17.81a43.57,43.57,0,0,1-2.8-7.38,56.23,56.23,0,0,1-1.52-6.36c1.93-.92,5.79-3.16,7.5-7.5,2.51-6.37-1.41-12.78-3.3-15.89a27.25,27.25,0,0,0-7-7.63,47.62,47.62,0,0,0-8.39,7.24c-4.85,5.3-12.75,13.06-10.93,19.83,0.61,2.29,1.71,2.17,2.92,5.85,0.36,1.1,2.63,7.95-.13,10.17C2594.27,700.08,2591.13,699.19,2589.35,698.31Z" transform="translate(-2451.5 -602.19)"/><path class="cls-29" d="M2628.73,712.45c-0.71-.64.8-2.83,1.89-4,3.64-3.73,10.53-3.68,11-2.58C2642.3,707.53,2630.29,713.86,2628.73,712.45Z" transform="translate(-2451.5 -602.19)"/><path class="cls-30" d="M2634,708.91a23.9,23.9,0,0,1,8.68-4.79,101.27,101.27,0,0,0-4.8,14.06c-0.64,2.44-1.15,4.79-1.57,7l-12.5,5.1a38.94,38.94,0,0,1,3.6-12.1A26.7,26.7,0,0,1,2634,708.91Z" transform="translate(-2451.5 -602.19)"/><path class="cls-29" d="M2633.46,710.45c0.71-.64-0.8-2.83-1.89-4-3.64-3.73-10.53-3.68-11-2.58C2619.89,705.53,2631.9,711.86,2633.46,710.45Z" transform="translate(-2451.5 -602.19)"/><path class="cls-31" d="M2607.34,724.2a53,53,0,0,1,4.67-11,60.52,60.52,0,0,1,7.71-10.68l15.13,7.38a104.43,104.43,0,0,0-6.58,10.39,97.64,97.64,0,0,0-4.74,9.82Z" transform="translate(-2451.5 -602.19)"/><path class="cls-32" d="M2609.84,725.84a14.41,14.41,0,0,1-2.37-4c-0.51-1.47-.41-2.18-1-2.52-1.11-.64-3.38.7-4.64,2.27a8.74,8.74,0,0,0-.39,9.67c1.38,2.26,4.25,4.54,7.64,4.15,3.66-.42,6.79-3.82,6.28-5.71C2614.93,728.07,2612.26,728.74,2609.84,725.84Z" transform="translate(-2451.5 -602.19)"/><path class="cls-27" d="M2604.88,724.18c-0.07-1.42,1-3,3.2-6.18,0.5-.73,1.25-3.26,2.38-2.66s0.42,4,1.12,4.38,1.94-3.16,5.08-3.93c0.55-.14,2.32-1,4,0.21,1.88,1.37,1.34,4.25,1.26,4.68-0.89,4.7-7.48,9.87-12.45,8.56C2607.07,728.6,2605,726.49,2604.88,724.18Z" transform="translate(-2451.5 -602.19)"/><path class="cls-27" d="M2641.07,720.08c0.1-.29,1.17-3.32-0.59-5a4,4,0,0,0-5.52.45c-2,2.36.15,7.47,2.37,7.85C2638.82,723.64,2640.45,721.76,2641.07,720.08Z" transform="translate(-2451.5 -602.19)"/><path class="cls-7" d="M2588.93,765.65c-3.13-9.69-3.4-19.41-.25-24.89,1.26-2.18,4.14-5.58,6.64-4.21s3.19,7,3.26,7.66C2599.73,755.28,2589.5,765.12,2588.93,765.65Z" transform="translate(-2451.5 -602.19)"/><path class="cls-7" d="M2586.43,772.19c9.19-7.71,19.79-12,27.34-10.57,4.53,0.88,9,4.05,7.82,6.49-1.24,2.6-8.52,3.64-13.29,4.33A70.92,70.92,0,0,1,2586.43,772.19Z" transform="translate(-2451.5 -602.19)"/><path class="cls-7" d="M2587.21,772.57a36.14,36.14,0,0,0-5-11.4c-1.06-1.61-7.53-11.37-12.45-11.13-2.58.13-4.39,3-4.05,5.82C2566.3,761.21,2574.82,768.07,2587.21,772.57Z" transform="translate(-2451.5 -602.19)"/><path class="cls-7" d="M2580.44,788.55c-0.9-5.12-3.7-16.95-12.51-21.14-0.72-.34-5.51-2.62-7.26-0.88-2,2,1.11,7.79,1.58,8.69C2566.36,783,2574.64,786.76,2580.44,788.55Z" transform="translate(-2451.5 -602.19)"/><path class="cls-7" d="M2578.2,788.45c1-1.08,12.2-13,22.12-9.64,2.9,1,6.39,3.51,6.06,5.47-0.48,2.84-8.84,3.69-13.8,4.19A70.4,70.4,0,0,1,2578.2,788.45Z" transform="translate(-2451.5 -602.19)"/><path class="cls-7" d="M2577.68,800.32c6.51-5.08,16.41-10.81,27.17-9.32,1.31,0.18,8,1.11,8.45,3.8s-5.71,5.92-8.88,7.2C2594.69,805.91,2584.42,803.13,2577.68,800.32Z" transform="translate(-2451.5 -602.19)"/><path class="cls-7" d="M2578,800.62c-7.8-9.87-15.07-13.15-18.84-14.4-5-1.65-6.62-.65-7.22-0.11-2,1.74-1.38,5.81-.46,7.89C2555.36,802.83,2576.26,800.8,2578,800.62Z" transform="translate(-2451.5 -602.19)"/><path class="cls-33" d="M2583.82,832.25a249.79,249.79,0,0,1-4.66-26.33q-0.22-1.92-.42-3.69c-0.06-.53-0.11-1-0.16-1.54q0-.51-0.09-1a53.6,53.6,0,0,1-.29-7.36,21.19,21.19,0,0,1,.58-3.83c0-.16.09-0.31,0.13-0.46l0.15-.49a20.42,20.42,0,0,1,.76-2c1.32-3.06,3.45-6.45,6.44-13.34,0.17-.4.35-0.81,0.52-1.23,0.68-1.6,1.39-3.36,2.15-5.34a89.34,89.34,0,0,0,3.15-9.68c0.16-.64.3-1.26,0.43-1.84a28.24,28.24,0,0,0,.77-6.9c-0.09-2.51-.72-3.32-0.72-3.32" transform="translate(-2451.5 -602.19)"/><path class="cls-7" d="M2666.41,706.65c3.13-9.69,3.4-19.41.25-24.89-1.26-2.18-4.14-5.58-6.64-4.21s-3.19,7-3.26,7.66C2655.62,696.28,2665.85,706.12,2666.41,706.65Z" transform="translate(-2451.5 -602.19)"/><path class="cls-7" d="M2668.92,713.19c-9.19-7.71-19.79-12-27.34-10.57-4.53.88-9,4.05-7.82,6.49,1.24,2.6,8.52,3.64,13.29,4.33A70.92,70.92,0,0,0,2668.92,713.19Z" transform="translate(-2451.5 -602.19)"/><path class="cls-7" d="M2689.69,696.86c0,0.1,0,.2,0,0.3-0.89,5.16-8.91,11.65-20.56,16.06l-0.94.35a2.66,2.66,0,0,1,.07-0.27c0-.18.09-0.38,0.15-0.58s0.13-.47.2-0.72a36.84,36.84,0,0,1,4.62-9.83c0.74-1.11,4-6.06,7.6-9,1.62-1.32,3.31-2.22,4.85-2.15C2688.21,691.17,2690,694,2689.69,696.86Z" transform="translate(-2451.5 -602.19)"/><path class="cls-7" d="M2674.91,729.55c0.9-5.12,3.7-16.95,12.51-21.14,0.72-.34,5.51-2.62,7.26-0.88,2,2-1.11,7.79-1.58,8.69C2689,724,2680.71,727.76,2674.91,729.55Z" transform="translate(-2451.5 -602.19)"/><path class="cls-7" d="M2677.14,729.45c-1-1.08-12.2-13-22.12-9.64-2.9,1-6.39,3.51-6.06,5.47,0.48,2.84,8.84,3.69,13.8,4.19A70.4,70.4,0,0,0,2677.14,729.45Z" transform="translate(-2451.5 -602.19)"/><path class="cls-7" d="M2677.67,741.32c-6.51-5.08-16.41-10.81-27.17-9.32-1.31.18-8,1.11-8.45,3.8s5.71,5.92,8.88,7.2C2660.66,746.91,2670.93,744.13,2677.67,741.32Z" transform="translate(-2451.5 -602.19)"/><path class="cls-7" d="M2677.39,741.62c7.8-9.87,15.07-13.15,18.84-14.4,5-1.65,6.62-.65,7.22-0.11,2,1.74,1.38,5.81.46,7.89C2700,743.83,2679.09,741.8,2677.39,741.62Z" transform="translate(-2451.5 -602.19)"/><path class="cls-33" d="M2662.79,684.91s-3.16,4,3.63,21.74,10.2,18.72,10.73,26.69-4.34,39.17-7.55,46" transform="translate(-2451.5 -602.19)"/><path class="cls-34" d="M2688.61,771.72c5-4-14.33-30.12-7.68-37.11,2.54-2.67,8.67-2.34,11.94.43,7.64,6.46-.68,25.82,3.84,27.73,2.43,1,5.11-4.46,12.8-5.55,2.65-.37,7.95-0.51,9,1.71,2,4.36-14.32,13.89-12.8,17.06,1.34,2.78,19-7.35,22.18-3.41,2.95,3.61-5.44,19.83-19.62,26-18.78,8.2-41.82-3.77-41.38-8.1,0.37-3.64,17.57-4.07,17.49-6.83-0.09-3.12-22.19-2.93-23-8.53-0.38-2.5,3.58-5.62,7.25-6.83C2677.79,765.27,2685.58,774.13,2688.61,771.72Z" transform="translate(-2451.5 -602.19)"/><path class="cls-35" d="M2702,791.53c4.14,0.47,7.25-20.41,13.52-20.57,2.39-.06,5.06,2.91,5.29,5.68,0.54,6.47-12.17,11.54-11,14.5,0.65,1.59,4.4.3,8.42,3.33,1.39,1,3.88,3.41,3.33,4.9-1.09,2.92-13-.2-13.71,2-0.67,1.89,12.09,5.34,11.75,8.62-0.31,3-11.6,6.61-21,2.94-12.39-4.86-17.47-20.94-15.28-22.72,1.84-1.5,9.94,6.2,11.17,4.9,1.39-1.47-8.85-11.54-6.66-14.5,1-1.32,4.22-.94,6.46.2C2700,783.6,2699.54,791.24,2702,791.53Z" transform="translate(-2451.5 -602.19)"/><path class="cls-36" d="M2513.1,771.49c6.41,0.27,8.93-32.14,18.53-33.06,3.67-.35,8.08,3.91,8.74,8.15,1.54,9.88-17.44,19-15.28,23.45,1.16,2.37,6.78,0,13.3,4.2,2.25,1.46,6.34,4.82,5.65,7.16-1.36,4.6-19.92,1.1-20.85,4.49-0.82,3,19.14,6.89,19,12-0.14,4.66-17.11,11.41-31.88,6.78-19.56-6.13-29.1-30.27-25.93-33.25,2.67-2.51,15.93,8.44,17.68,6.31,2-2.41-14.84-16.76-11.8-21.54,1.36-2.14,6.38-1.89,10-.4C2509.16,759.52,2509.24,771.32,2513.1,771.49Z" transform="translate(-2451.5 -602.19)"/><path class="cls-37" d="M2544.94,766.06c3.31-3-11.48-20.32-7.18-25.52,1.64-2,5.93-2.06,8.36-.29,5.65,4.13.8,18.05,4,19.16,1.75,0.6,3.35-3.36,8.66-4.5,1.83-.39,5.52-0.75,6.34.75,1.6,2.94-9.31,10.4-8.09,12.54,1.07,1.88,12.88-6.06,15.31-3.47,2.23,2.38-2.82,14.11-12.41,19.12-12.7,6.64-29.37-.58-29.27-3.62,0.08-2.56,12.06-3.71,11.87-5.62-0.21-2.17-15.63-1-16.49-4.82-0.39-1.73,2.22-4.09,4.72-5.12C2537.07,762.09,2542.94,767.89,2544.94,766.06Z" transform="translate(-2451.5 -602.19)"/><path class="cls-38" d="M2533.95,783.15c4.72-4.34-16.41-29-10.27-36.48,2.34-2.84,8.48-2.95,11.94-.41,8.07,5.9,1.14,25.8,5.78,27.39,2.5,0.85,4.79-4.81,12.38-6.43,2.62-.56,7.89-1.07,9.06,1.07,2.29,4.21-13.31,14.86-11.57,17.92,1.53,2.68,18.41-8.67,21.89-5,3.19,3.4-4,20.17-17.74,27.34-18.16,9.5-42-.82-41.85-5.17,0.11-3.66,17.24-5.3,17-8-0.31-3.11-22.34-1.36-23.58-6.89-0.55-2.47,3.17-5.85,6.75-7.32C2522.7,777.48,2531.1,785.76,2533.95,783.15Z" transform="translate(-2451.5 -602.19)"/></g></svg>