<svg id="Layer_5" data-name="Layer 5" xmlns="http://www.w3.org/2000/svg" viewBox="0 0 955.07 645.68"><defs><style>.cls-1{fill:#fff;}.cls-2,.cls-3,.cls-4{fill:none;stroke:#000;stroke-miterlimit:10;}.cls-2{stroke-width:0.5px;}.cls-4{stroke-width:5px;}.cls-5{font-size:12px;font-family:Helvetica;}</style></defs><title>top</title><rect class="cls-1" width="955.07" height="645.68"/><circle class="cls-1" cx="484.01" cy="326.22" r="176.15"/><path class="cls-2" d="M2977-496.5h0c-1.93-.81-10.11-4-17,0-0.79.45-6.07,3.51-5.67,7.32,0.31,3,3.9,4.73,5.54,5.54,6.76,3.32,14,1.08,16.94,0" transform="translate(-2500.49 700.36)"/><rect class="cls-2" x="459.97" y="204.4" width="11.56" height="11.56" rx="5.78" ry="5.78"/><rect class="cls-2" x="3058.61" y="-371.6" width="68.38" height="25.42" transform="translate(3685.12 -17.43) rotate(-180)"/><rect class="cls-2" x="3060.57" y="-368.84" width="10.76" height="19.71" transform="translate(3631.41 -17.61) rotate(-180)"/><rect class="cls-2" x="3072.94" y="-371.6" width="54.05" height="25.42" transform="translate(3699.45 -17.43) rotate(-180)"/><rect class="cls-2" x="3081.62" y="-371.82" width="45.37" height="25.63" transform="translate(3708.13 -17.64) rotate(-180)"/><line class="cls-3" x1="570.51" y1="336.86" x2="570.51" y2="336.86"/><line class="cls-3" x1="581.51" y1="336.86" x2="581.51" y2="336.86"/><line class="cls-3" x1="572.51" y1="338.86" x2="572.51" y2="338.86"/><line class="cls-3" x1="581.51" y1="336.86" x2="581.51" y2="336.86"/><rect class="cls-2" x="563.78" y="354.18" width="16.56" height="6.88"/><rect class="cls-2" x="566.44" y="354.18" width="11" height="5.14"/><rect class="cls-2" x="580.34" y="354.18" width="8.45" height="6.88"/><line class="cls-2" x1="588.79" y1="361.05" x2="633.9" y2="361.05"/><line class="cls-2" x1="633.9" y1="327.32" x2="633.9" y2="361.05"/><line class="cls-2" x1="558.25" y1="290.14" x2="558.25" y2="323.88"/><line class="cls-2" x1="612.68" y1="354.18" x2="617.47" y2="361.05"/><line class="cls-2" x1="621.78" y1="354.18" x2="626.33" y2="361.05"/><line class="cls-2" x1="614.01" y1="356.08" x2="623" y2="356.01"/><line class="cls-2" x1="615.48" y1="358.19" x2="624.28" y2="357.95"/><line class="cls-2" x1="616.65" y1="359.87" x2="625.41" y2="359.66"/><rect class="cls-2" x="2830.61" y="-371.6" width="68.38" height="25.42" transform="translate(3229.12 -17.43) rotate(-180)"/><rect class="cls-2" x="2832.57" y="-368.84" width="10.76" height="19.71" transform="translate(3175.41 -17.61) rotate(-180)"/><rect class="cls-2" x="2844.94" y="-371.6" width="54.05" height="25.42" transform="translate(3243.45 -17.43) rotate(-180)"/><rect class="cls-2" x="2853.62" y="-371.82" width="45.37" height="25.63" transform="translate(3252.13 -17.64) rotate(-180)"/><line class="cls-3" x1="342.51" y1="336.86" x2="342.51" y2="336.86"/><line class="cls-3" x1="353.51" y1="336.86" x2="353.51" y2="336.86"/><line class="cls-3" x1="344.51" y1="338.86" x2="344.51" y2="338.86"/><line class="cls-3" x1="353.51" y1="336.86" x2="353.51" y2="336.86"/><rect class="cls-2" x="335.78" y="354.18" width="16.56" height="6.88"/><rect class="cls-2" x="338.44" y="354.18" width="11" height="5.14"/><rect class="cls-2" x="352.34" y="354.18" width="8.45" height="6.88"/><line class="cls-2" x1="360.79" y1="361.05" x2="405.9" y2="361.05"/><line class="cls-2" x1="405.9" y1="327.32" x2="405.9" y2="361.05"/><line class="cls-2" x1="384.68" y1="354.18" x2="389.47" y2="361.05"/><line class="cls-2" x1="393.78" y1="354.18" x2="398.33" y2="361.05"/><line class="cls-2" x1="386.01" y1="356.08" x2="395" y2="356.01"/><line class="cls-2" x1="387.48" y1="358.19" x2="396.28" y2="357.95"/><line class="cls-2" x1="388.65" y1="359.87" x2="397.41" y2="359.66"/><rect class="cls-2" x="3002.59" y="-483.19" width="68.38" height="25.42" transform="translate(65.81 -2806.9) rotate(90)"/><rect class="cls-2" x="3031.31" y="-453.48" width="10.76" height="19.71" transform="translate(92.57 -2779.95) rotate(90)"/><rect class="cls-2" x="3009.75" y="-490.35" width="54.05" height="25.42" transform="translate(58.65 -2814.06) rotate(90)"/><rect class="cls-2" x="3013.99" y="-494.8" width="45.37" height="25.63" transform="translate(54.2 -2818.3) rotate(90)"/><line class="cls-3" x1="531.68" y1="251.68" x2="531.68" y2="251.68"/><line class="cls-3" x1="531.68" y1="240.68" x2="531.68" y2="240.68"/><line class="cls-3" x1="533.68" y1="249.68" x2="533.68" y2="249.68"/><line class="cls-3" x1="531.68" y1="240.68" x2="531.68" y2="240.68"/><rect class="cls-2" x="3044.65" y="-453.66" width="16.56" height="6.88" transform="translate(1002.66 3303.06) rotate(-90)"/><rect class="cls-2" x="3046.56" y="-452.68" width="11" height="5.14" transform="translate(1001.68 3302.31) rotate(-90)"/><rect class="cls-2" x="3048.7" y="-466.17" width="8.45" height="6.88" transform="translate(1015.17 3290.56) rotate(-90)"/><line class="cls-2" x1="555.88" y1="233.4" x2="555.88" y2="188.3"/><line class="cls-2" x1="522.14" y1="188.3" x2="555.88" y2="188.3"/><line class="cls-2" x1="549" y1="209.51" x2="555.88" y2="204.72"/><line class="cls-2" x1="549" y1="200.42" x2="555.88" y2="195.87"/><line class="cls-2" x1="550.91" y1="208.18" x2="550.84" y2="199.2"/><line class="cls-2" x1="553.01" y1="206.72" x2="552.77" y2="197.92"/><line class="cls-2" x1="554.69" y1="205.55" x2="554.48" y2="196.79"/><rect class="cls-2" x="2888.03" y="-281.58" width="68.38" height="25.42" transform="translate(690.6 3353.71) rotate(-90)"/><rect class="cls-2" x="2916.93" y="-305.58" width="10.76" height="19.71" transform="translate(717.55 3326.94) rotate(-90)"/><rect class="cls-2" x="2895.19" y="-274.41" width="54.05" height="25.42" transform="translate(683.43 3360.87) rotate(-90)"/><rect class="cls-2" x="2899.64" y="-270.18" width="45.37" height="25.63" transform="translate(679.2 3365.32) rotate(-90)"/><line class="cls-3" x1="426.33" y1="409.69" x2="426.33" y2="409.69"/><line class="cls-3" x1="426.33" y1="420.69" x2="426.33" y2="420.69"/><line class="cls-3" x1="424.33" y1="411.69" x2="424.33" y2="411.69"/><line class="cls-3" x1="426.33" y1="420.69" x2="426.33" y2="420.69"/><rect class="cls-2" x="2897.79" y="-292.56" width="16.56" height="6.88" transform="translate(116.46 -2494.84) rotate(90)"/><rect class="cls-2" x="2901.44" y="-291.81" width="11" height="5.14" transform="translate(117.21 -2495.82) rotate(90)"/><rect class="cls-2" x="2901.84" y="-280.06" width="8.45" height="6.88" transform="translate(128.96 -2482.33) rotate(90)"/><line class="cls-2" x1="402.14" y1="427.97" x2="402.14" y2="473.07"/><line class="cls-2" x1="435.88" y1="473.07" x2="402.14" y2="473.07"/><line class="cls-2" x1="409.02" y1="451.86" x2="402.14" y2="456.65"/><line class="cls-2" x1="409.02" y1="460.96" x2="402.14" y2="465.51"/><line class="cls-2" x1="407.11" y1="453.19" x2="407.18" y2="462.17"/><line class="cls-2" x1="405" y1="454.65" x2="405.24" y2="463.45"/><line class="cls-2" x1="403.33" y1="455.82" x2="403.53" y2="464.58"/><rect class="cls-2" x="2999.59" y="-278.58" width="68.38" height="25.42" transform="translate(799.16 3468.27) rotate(-90)"/><rect class="cls-2" x="3028.31" y="-302.58" width="10.76" height="19.71" transform="translate(825.92 3441.32) rotate(-90)"/><rect class="cls-2" x="3006.75" y="-271.41" width="54.05" height="25.42" transform="translate(792 3475.43) rotate(-90)"/><rect class="cls-2" x="3010.99" y="-267.18" width="45.37" height="25.63" transform="translate(787.55 3479.67) rotate(-90)"/><line class="cls-3" x1="528.68" y1="412.69" x2="528.68" y2="412.69"/><line class="cls-3" x1="528.68" y1="423.69" x2="528.68" y2="423.69"/><line class="cls-3" x1="530.68" y1="414.69" x2="530.68" y2="414.69"/><line class="cls-3" x1="528.68" y1="423.69" x2="528.68" y2="423.69"/><rect class="cls-2" x="3041.65" y="-289.56" width="16.56" height="6.88" transform="translate(263.31 -2635.69) rotate(90)"/><rect class="cls-2" x="3043.56" y="-288.81" width="11" height="5.14" transform="translate(262.33 -2634.94) rotate(90)"/><rect class="cls-2" x="3045.7" y="-277.06" width="8.45" height="6.88" transform="translate(275.82 -2623.19) rotate(90)"/><line class="cls-2" x1="552.88" y1="430.97" x2="552.88" y2="476.07"/><line class="cls-2" x1="519.14" y1="476.07" x2="552.88" y2="476.07"/><line class="cls-2" x1="546" y1="454.86" x2="552.88" y2="459.65"/><line class="cls-2" x1="546" y1="463.96" x2="552.88" y2="468.51"/><line class="cls-2" x1="547.91" y1="456.19" x2="547.84" y2="465.17"/><line class="cls-2" x1="550.01" y1="457.65" x2="549.77" y2="466.45"/><line class="cls-2" x1="551.69" y1="458.82" x2="551.48" y2="467.58"/><rect class="cls-2" x="565.51" y="297.42" width="68.38" height="25.42"/><rect class="cls-2" x="621.18" y="300.37" width="10.76" height="19.71"/><rect class="cls-2" x="565.51" y="297.42" width="54.05" height="25.42"/><rect class="cls-2" x="565.51" y="297.42" width="45.37" height="25.63"/><line class="cls-3" x1="619.51" y1="312.74" x2="619.51" y2="312.74"/><rect class="cls-2" x="3112.17" y="-409.82" width="16.56" height="6.88" transform="translate(3740.41 -112.39) rotate(-180)"/><rect class="cls-2" x="3115.07" y="-408.08" width="11" height="5.14" transform="translate(3740.64 -110.66) rotate(-180)"/><rect class="cls-2" x="3103.72" y="-409.82" width="8.45" height="6.88" transform="translate(3715.4 -112.39) rotate(-180)"/><line class="cls-2" x1="603.23" y1="290.54" x2="558.12" y2="290.54"/><line class="cls-2" x1="568.69" y1="297.42" x2="573.48" y2="290.54"/><line class="cls-2" x1="577.79" y1="297.42" x2="582.34" y2="290.54"/><line class="cls-2" x1="570.02" y1="295.51" x2="579" y2="295.58"/><line class="cls-2" x1="571.49" y1="293.41" x2="580.28" y2="293.65"/><line class="cls-2" x1="572.66" y1="291.73" x2="581.42" y2="291.94"/><rect class="cls-2" x="324.47" y="309.86" width="110.54" height="15.5"/><rect class="cls-2" x="331.31" y="316.09" width="23.65" height="3.03"/><rect class="cls-2" x="366.91" y="316.09" width="23.65" height="3.03"/><rect class="cls-2" x="402.26" y="316.09" width="23.65" height="3.03"/><rect class="cls-2" x="343.39" y="295.63" width="13.47" height="10.63"/><path class="cls-2" d="M2857.35-404.15c0-.19,0-0.39,0-0.58a6.74,6.74,0,0,0-6.71-6.16,6.73,6.73,0,0,0-6.71,6.16c0,0.19,0,.38,0,0.58" transform="translate(-2500.49 700.36)"/><rect class="cls-2" x="372.56" y="295.63" width="13.47" height="10.63"/><path class="cls-2" d="M2886.52-404.15c0-.19,0-0.39,0-0.58a6.74,6.74,0,0,0-6.71-6.16,6.73,6.73,0,0,0-6.71,6.16c0,0.19,0,.38,0,0.58" transform="translate(-2500.49 700.36)"/><rect class="cls-2" x="400.92" y="295.63" width="13.47" height="10.63"/><path class="cls-2" d="M2914.88-404.15c0-.19,0-0.39,0-0.58a6.74,6.74,0,0,0-6.71-6.16,6.73,6.73,0,0,0-6.71,6.16c0,0.19,0,.38,0,0.58" transform="translate(-2500.49 700.36)"/><rect class="cls-2" x="2870.61" y="-487.15" width="110.54" height="15.5" transform="translate(904.8 3146.84) rotate(-90)"/><rect class="cls-2" x="2914.06" y="-444.32" width="23.65" height="3.03" transform="translate(868.2 3183.44) rotate(-90)"/><rect class="cls-2" x="2914.06" y="-479.92" width="23.65" height="3.03" transform="translate(903.79 3147.85) rotate(-90)"/><rect class="cls-2" x="2914.06" y="-515.26" width="23.65" height="3.03" transform="translate(939.14 3112.5) rotate(-90)"/><rect class="cls-2" x="2897.58" y="-450.71" width="13.47" height="10.63" transform="translate(849.22 3159.27) rotate(-90)"/><path class="cls-2" d="M2899.57-452.14l-0.58,0a6.74,6.74,0,0,0-6.16,6.71,6.73,6.73,0,0,0,6.16,6.71l0.58,0" transform="translate(-2500.49 700.36)"/><rect class="cls-2" x="2897.58" y="-479.89" width="13.47" height="10.63" transform="translate(878.39 3130.1) rotate(-90)"/><path class="cls-2" d="M2899.57-481.31l-0.58,0a6.74,6.74,0,0,0-6.16,6.71,6.73,6.73,0,0,0,6.16,6.71l0.58,0" transform="translate(-2500.49 700.36)"/><rect class="cls-2" x="2897.58" y="-508.25" width="13.47" height="10.63" transform="translate(906.76 3101.73) rotate(-90)"/><path class="cls-2" d="M2899.57-509.67l-0.58,0a6.74,6.74,0,0,0-6.16,6.71,6.73,6.73,0,0,0,6.16,6.71l0.58,0" transform="translate(-2500.49 700.36)"/><rect class="cls-2" x="434.51" y="220.95" width="17.37" height="27.4"/><path class="cls-3" d="M2949.5-468.79v4.37a5,5,0,0,1-5,5,5,5,0,0,1-5-5v-1.08H2942a1.45,1.45,0,0,0,.92-0.5,1.69,1.69,0,0,0,.38-1.06,1.43,1.43,0,0,0-1.3-1.44h-2.48v-0.29a5.24,5.24,0,0,1,5.25-5,4.69,4.69,0,0,1,3.41,1.47A4.87,4.87,0,0,1,2949.5-468.79Z" transform="translate(-2500.49 700.36)"/><circle class="cls-2" cx="2944.99" cy="-466.6" r="1.37" transform="translate(-1153.44 2751.15) rotate(-48.59)"/><path class="cls-3" d="M2943.29-467.12a1.74,1.74,0,0,1-.38,1.08,1.5,1.5,0,0,1-.92.54h-4.4a1.41,1.41,0,0,1-1.31-1.42,1.65,1.65,0,0,1,.39-1.06,1.48,1.48,0,0,1,.92-0.52h4.4A1.38,1.38,0,0,1,2943.29-467.12Z" transform="translate(-2500.49 700.36)"/><rect class="cls-2" x="436.98" y="160.68" width="43.03" height="19.5"/><path class="cls-3" d="M2971.92-528.82a5.38,5.38,0,0,1-1.52,2.75,5.49,5.49,0,0,1-3.92,1.58h-19.26a5.51,5.51,0,0,1-5.54-5.49,5.45,5.45,0,0,1,1.63-3.9,5.48,5.48,0,0,1,3.91-1.62h19.26a5.58,5.58,0,0,1,5.34,4" transform="translate(-2500.49 700.36)"/><circle class="cls-2" cx="448.14" cy="170.19" r="0.87"/><rect class="cls-2" x="465.75" y="168.92" width="9.45" height="2.62" rx="1.31" ry="1.31"/><path class="cls-2" d="M2980.5-254.18h0c1.93,0.81,10.11,4,17,0,0.79-.45,6.07-3.51,5.67-7.32-0.31-3-3.9-4.73-5.54-5.54-6.76-3.32-14-1.08-16.94,0" transform="translate(-2500.49 700.36)"/><rect class="cls-2" x="2985.47" y="-266.28" width="11.56" height="11.56" rx="5.78" ry="5.78" transform="translate(3482.02 179.36) rotate(180)"/><rect class="cls-2" x="3005.13" y="-298.68" width="17.37" height="27.4" transform="translate(3527.14 130.4) rotate(180)"/><path class="cls-3" d="M3007.5-281.89v-4.37a5,5,0,0,1,5-5,5,5,0,0,1,5,5v0.76h-2a1.7,1.7,0,0,0-.92.66,1.47,1.47,0,0,0-.38,1,1.36,1.36,0,0,0,1.3,1.36h2v0.61a5,5,0,0,1-5,5,5,5,0,0,1-3.53-1.47A5,5,0,0,1,3007.5-281.89Z" transform="translate(-2500.49 700.36)"/><circle class="cls-2" cx="3012.51" cy="-284.08" r="1.37" transform="translate(-1267.47 2863.59) rotate(-48.59)"/><path class="cls-3" d="M3014.21-283.72a2,2,0,0,1,.38-1.16,1.63,1.63,0,0,1,.92-0.62h4.4a1.57,1.57,0,0,1,1.31,1.58,1.45,1.45,0,0,1-.39,1,1.38,1.38,0,0,1-.92.44h-4.4A1.24,1.24,0,0,1,3014.21-283.72Z" transform="translate(-2500.49 700.36)"/><rect class="cls-2" x="2977" y="-230.5" width="43.03" height="19.5" transform="translate(3496.54 258.86) rotate(180)"/><path class="cls-3" d="M2985.58-221.86a5.87,5.87,0,0,1,1.52-2.9,5.63,5.63,0,0,1,3.92-1.73h19.26a5.64,5.64,0,0,1,5.54,5.64,5.26,5.26,0,0,1-1.63,3.82,5.42,5.42,0,0,1-3.91,1.54H2991a5.44,5.44,0,0,1-5.34-3.89" transform="translate(-2500.49 700.36)"/><circle class="cls-2" cx="508.38" cy="479.85" r="0.87"/><rect class="cls-2" x="2981.81" y="-221.86" width="9.45" height="2.62" rx="1.31" ry="1.31" transform="translate(3472.57 259.27) rotate(-180)"/><path class="cls-2" d="M2982.5-484.18h0c1.93,0.81,10.11,4,17,0,0.79-.45,6.07-3.51,5.67-7.32-0.31-3-3.9-4.73-5.54-5.54-6.76-3.32-14-1.08-16.94,0" transform="translate(-2500.49 700.36)"/><rect class="cls-2" x="2987.47" y="-496.28" width="11.56" height="11.56" rx="5.78" ry="5.78" transform="translate(3486.02 -280.64) rotate(-180)"/><rect class="cls-2" x="3003.13" y="-481.68" width="17.37" height="27.4" transform="translate(3523.14 -235.6) rotate(180)"/><path class="cls-3" d="M3005.5-464.89v-4.37a5,5,0,0,1,5-5,5,5,0,0,1,5,5v0.76h-2a1.7,1.7,0,0,0-.92.66,1.47,1.47,0,0,0-.38,1,1.36,1.36,0,0,0,1.3,1.36h2v0.61a5,5,0,0,1-5,5,5,5,0,0,1-3.53-1.47A5,5,0,0,1,3005.5-464.89Z" transform="translate(-2500.49 700.36)"/><circle class="cls-2" cx="3010.51" cy="-467.08" r="1.37" transform="translate(-1130.9 2800.13) rotate(-48.59)"/><path class="cls-3" d="M3012.21-466.72a2,2,0,0,1,.38-1.16,1.63,1.63,0,0,1,.92-0.62h4.4a1.57,1.57,0,0,1,1.31,1.58,1.45,1.45,0,0,1-.39,1,1.38,1.38,0,0,1-.92.44h-4.4A1.24,1.24,0,0,1,3012.21-466.72Z" transform="translate(-2500.49 700.36)"/><rect class="cls-2" x="2980" y="-539.5" width="43.03" height="19.5" transform="translate(3502.54 -359.14) rotate(180)"/><path class="cls-3" d="M2988.58-530.86a5.87,5.87,0,0,1,1.52-2.9,5.63,5.63,0,0,1,3.92-1.73h19.26a5.64,5.64,0,0,1,5.54,5.64,5.26,5.26,0,0,1-1.63,3.82,5.42,5.42,0,0,1-3.91,1.54H2994a5.44,5.44,0,0,1-5.34-3.89" transform="translate(-2500.49 700.36)"/><circle class="cls-2" cx="511.38" cy="170.85" r="0.87"/><rect class="cls-2" x="2984.81" y="-530.86" width="9.45" height="2.62" rx="1.31" ry="1.31" transform="translate(3478.57 -358.73) rotate(180)"/><path class="cls-2" d="M2975.53-266.59h0c-1.93-.81-10.11-4-17,0-0.79.45-6.07,3.51-5.67,7.32,0.31,3,3.9,4.73,5.54,5.54,6.76,3.32,14,1.08,16.94,0" transform="translate(-2500.49 700.36)"/><rect class="cls-2" x="458.5" y="434.3" width="11.56" height="11.56" rx="5.78" ry="5.78"/><rect class="cls-2" x="437.04" y="403.86" width="17.37" height="27.4"/><path class="cls-3" d="M2952.5-285.88v4.37a5,5,0,0,1-5,5,5,5,0,0,1-5-5v-1h2a1.51,1.51,0,0,0,.92-0.54,1.62,1.62,0,0,0,.38-1,1.41,1.41,0,0,0-1.3-1.42h-2v-0.38a5,5,0,0,1,5-5,5,5,0,0,1,3.52,1.47A5,5,0,0,1,2952.5-285.88Z" transform="translate(-2500.49 700.36)"/><circle class="cls-2" cx="2947.52" cy="-283.7" r="1.37" transform="translate(-1289.77 2814.97) rotate(-48.59)"/><path class="cls-3" d="M2945.81-284.16a1.8,1.8,0,0,1-.38,1.1,1.54,1.54,0,0,1-.92.56h-4.4a1.46,1.46,0,0,1-1.31-1.47,1.59,1.59,0,0,1,.39-1,1.45,1.45,0,0,1,.92-0.5h4.4A1.33,1.33,0,0,1,2945.81-284.16Z" transform="translate(-2500.49 700.36)"/><rect class="cls-2" x="434.51" y="469.59" width="43.03" height="19.5"/><path class="cls-3" d="M2969.45-219.91a5.52,5.52,0,0,1-1.52,2.79,5.53,5.53,0,0,1-3.92,1.62h-19.26a5.54,5.54,0,0,1-5.54-5.53,5.39,5.39,0,0,1,1.63-3.87,5.46,5.46,0,0,1,3.91-1.59H2964a5.54,5.54,0,0,1,5.34,4" transform="translate(-2500.49 700.36)"/><circle class="cls-2" cx="445.67" cy="479.1" r="0.87"/><rect class="cls-2" x="463.28" y="477.82" width="9.45" height="2.62" rx="1.31" ry="1.31"/><path class="cls-2" d="M2951.54-299l-0.16-14.67c0.46,0,7.85-.31,11.93,5.31a12.28,12.28,0,0,1,2.13,8.89" transform="translate(-2500.49 700.36)"/><path class="cls-2" d="M2989.54-299l-0.16-14.67c0.46,0,7.85-.31,11.93,5.31a12.28,12.28,0,0,1,2.13,8.89" transform="translate(-2500.49 700.36)"/><path class="cls-2" d="M3022.81-329.17l-15.2.17c0-.48-0.32-8.13,5.5-12.37a12.72,12.72,0,0,1,9.22-2.2" transform="translate(-2500.49 700.36)"/><path class="cls-2" d="M2934.6-421.53l15.2-.17c0,0.48.32,8.13-5.5,12.37a12.72,12.72,0,0,1-9.22,2.2" transform="translate(-2500.49 700.36)"/><path class="cls-2" d="M3023.81-406.17l-15.2.17c0-.48-0.32-8.13,5.5-12.37a12.72,12.72,0,0,1,9.22-2.2" transform="translate(-2500.49 700.36)"/><path class="cls-2" d="M2966.38-452l0.17,15.2c-0.48,0-8.13.32-12.37-5.5a12.72,12.72,0,0,1-2.2-9.22" transform="translate(-2500.49 700.36)"/><path class="cls-2" d="M3008.38-452l0.17,15.2c-0.48,0-8.13.32-12.37-5.5a12.72,12.72,0,0,1-2.2-9.22" transform="translate(-2500.49 700.36)"/><path class="cls-2" d="M2934.79-342.12l15.25-.17c0,0.48.33,8.16-5.52,12.41a12.77,12.77,0,0,1-9.25,2.21" transform="translate(-2500.49 700.36)"/><circle class="cls-4" cx="483.21" cy="325.84" r="175.01"/><line class="cls-4" x1="435.01" y1="372.36" x2="435.01" y2="494.36"/><polyline class="cls-4" points="308.51 325.86 435.01 325.86 435.01 358.36"/><line class="cls-4" x1="451.51" y1="400.86" x2="434.51" y2="400.86"/><line class="cls-4" x1="464.51" y1="400.86" x2="489.51" y2="400.86"/><polyline class="cls-4" points="502.51 400.86 521.01 400.86 521.01 496.36"/><line class="cls-4" x1="521.01" y1="371.36" x2="521.01" y2="401.36"/><polyline class="cls-4" points="521.01 357.36 521.01 325.36 658.21 325.84"/><line class="cls-4" x1="435.01" y1="326.36" x2="435.01" y2="293.36"/><line class="cls-4" x1="435.01" y1="279.36" x2="435.01" y2="157.36"/><line class="cls-4" x1="452.51" y1="247.86" x2="434.51" y2="247.86"/><line class="cls-4" x1="465.51" y1="247.86" x2="494.51" y2="247.86"/><path class="cls-4" d="M3014.63-452.5" transform="translate(-2500.49 700.36)"/><line class="cls-4" x1="521.01" y1="280.36" x2="521.01" y2="155.36"/><path class="cls-4" d="M3021.5-420" transform="translate(-2500.49 700.36)"/><line class="cls-4" x1="521.01" y1="325.36" x2="521.01" y2="293.36"/><line class="cls-4" x1="480.01" y1="151.36" x2="480.01" y2="248.36"/><line class="cls-4" x1="520.51" y1="247.86" x2="507.51" y2="247.86"/><line class="cls-4" x1="477.01" y1="400.86" x2="477.01" y2="500.74"/><circle class="cls-2" cx="476.51" cy="326.36" r="10.86"/><text class="cls-5" transform="translate(572.51 254.96)">Quarters 1</text><text class="cls-5" transform="translate(338.44 382.34)">Quarters 2</text><text class="cls-5" transform="translate(333.01 258.41)">Lounge</text><text class="cls-5" transform="translate(456.31 349.11)">Ladder</text><text class="cls-5" transform="translate(563.78 386.36)">Quarters 3</text></svg>